<svg x="0" y="0" width="1024" height="512" viewBox="0 0 1024 512" xmlns="http://www.w3.org/2000/svg" xmlns:xlink="http://www.w3.org/1999/xlink" xmlns:fi="http://pattern.flaticon.com/"><rect x="0px" y="0px" width="100%" height="100%" opacity="1" fill="#0e0e0e"/><defs><g transform="matrix(0.1316525638103485 0 0 0.1316525638103485 203 252)" id="L1_0"><path d="M446.976,63.265l-2.56-7.168c-2.048-6.144-7.68-10.24-14.336-10.24H409.6v-10.24c0-5.632-4.608-10.24-10.24-10.24h-9.728     c-5.632,0-10.24,4.608-10.24,10.24v10.221c-0.514-0.081-1.035-0.082-1.536,0.019l-56.832,8.704     c-39.936,6.144-80.384,9.728-120.32,10.752l-19.968,0.512c-4.608,0-8.704,0.512-12.8,0.512H166.4     C73.216,70.433,0,146.721,0,240.417c0,41.556,14.898,81.958,41.705,113.314l-26.857,7.006c-3.584,1.024-6.144,4.096-7.168,7.68     l-1.024,5.632c-3.584,17.408,1.024,35.328,12.8,48.64l3.584,4.096c2.048,2.56,4.608,3.584,7.68,3.584c1.024,0,1.536,0,2.56-0.512     l86.016-23.04c0.536-0.107,1.025-0.332,1.462-0.636c17.078,5.476,35.022,8.316,53.322,8.316c4.096,0,8.192,0,12.288-0.512     c82.944-5.632,156.672-80.384,161.792-162.816c1.368-26.441-2.963-52.875-12.961-76.786l42.657,9.714c0.512,0,0.512,0,1.024,0     c0.171,0,0.341-0.026,0.512-0.047v10.287c0,5.632,4.608,10.24,10.24,10.24h9.728c5.632,0,10.24-4.608,10.24-10.24v-10.752h20.48     c6.656,0,12.288-4.096,14.848-10.24l1.536-5.12C458.752,134.433,458.752,97.568,446.976,63.265z M30.72,420.128l-3.584-4.096     c-9.728-10.752-13.824-25.6-10.752-39.936l1.024-5.632l31.966-8.339c1.925,1.969,3.895,3.899,5.922,5.779     c14.874,13.712,31.652,24.565,49.654,32.341L30.72,420.128z M328.192,162.593c-49.027-11.12-100.049-17.24-150.605-18.38     c-0.718-0.353-1.545-0.564-2.483-0.564c-25.185,0-48.123,9.552-65.392,25.232l-7.824-7.824c-2.048-2.048-5.12-2.048-7.168,0     c-2.048,2.048-2.048,5.12,0,7.168l7.855,7.855c-14.224,15.9-23.291,36.51-24.585,59.217H66.56c-3.072,0-5.12,2.048-5.12,5.12     c0,3.072,2.048,5.12,5.12,5.12h11.375c1.064,22.853,9.999,43.632,24.158,59.698l-7.374,7.374c-2.048,2.048-2.048,5.12,0,7.168     c1.024,1.024,2.048,1.536,3.584,1.536c1.024,0,2.56,0,3.584-1.536l7.293-7.293c17.329,15.971,40.477,25.725,65.923,25.725     c24.924,0,47.643-9.359,64.849-24.751l6.319,6.319c1.024,1.024,2.048,1.536,3.584,1.536s3.072,0,3.584-1.536     c2.048-2.048,2.048-5.12,0-7.168l-6.288-6.289c14.719-16.209,24.033-37.414,25.121-60.783h9.327c3.072,0,5.12-2.048,5.12-5.12     c0-3.072-2.048-5.12-5.12-5.12h-9.388c-0.884-15.409-5.378-30.279-13.14-43.52c-1.536-2.56-4.608-3.584-7.168-2.048     c-2.56,1.536-3.584,4.608-2.048,7.168c7.19,11.684,11.223,24.945,12.102,38.4H250.88c-3.072,0-5.12,2.048-5.12,5.12     c0,3.072,2.048,5.12,5.12,5.12h11.142c-1.079,20.508-9.321,39.117-22.208,53.445l-7.877-7.877c-2.048-2.048-5.12-2.048-7.168,0     c-2.048,2.048-2.048,5.12,0,7.168l7.844,7.844c-15.402,13.599-35.584,21.852-57.508,21.852c-22.629,0-43.219-8.604-58.686-22.722     l6.974-6.974c2.048-2.048,2.048-5.12,0-7.168c-2.048-2.048-5.12-2.048-7.168,0l-6.886,6.886     c-12.318-14.19-20.112-32.417-21.153-52.454h9.095c3.072,0,5.12-2.048,5.12-5.12c0-3.072-2.048-5.12-5.12-5.12h-9.028     c1.279-19.846,9.264-37.867,21.66-51.88l6.312,6.312c1.024,1.024,2.048,1.536,3.584,1.536c1.024,0,2.56-0.512,3.584-1.536     c2.048-2.048,2.048-5.12,0-7.168l-6.339-6.339c15.076-13.534,34.839-21.896,56.368-22.312c0.649,0.309,1.385,0.491,2.195,0.491     c49.579,0.501,99.154,6.404,147.296,17.202c11.649,24.598,16.507,51.567,15.008,78.542c-4.608,77.824-74.24,148.48-152.064,153.6     c-46.08,3.072-89.6-12.288-123.392-43.52c-33.28-30.72-52.224-74.752-52.224-119.808c0-88.064,69.12-159.744,156.672-163.84     h1.536c4.608,0,8.704,0,13.312-0.512l19.456-0.512c40.448-1.024,81.408-4.608,121.344-10.752l56.832-9.216v118.16     L328.192,162.593z M399.872,194.337H389.12V35.617h10.752V194.337z M436.224,165.153l-1.536,5.12     c-0.512,2.048-2.56,3.584-4.608,3.584H409.6V55.073h19.968c2.048,0,4.096,1.536,4.608,3.584l2.56,7.168     C448,97.568,447.488,133.409,436.224,165.153z" fill="#5c4b51"/><path d="M174.08,173.857c-36.864,0-66.56,29.696-66.56,66.56s29.696,66.56,66.56,66.56s66.56-29.696,66.56-66.56     S210.944,173.857,174.08,173.857z M174.08,301.857c-33.792,0-61.44-27.648-61.44-61.44s27.648-61.44,61.44-61.44     s61.44,27.648,61.44,61.44S207.872,301.857,174.08,301.857z" fill="#5c4b51"/><path d="M341.504,74.017l-20.48,3.072c-1.536,0.512-2.048,1.536-2.048,3.072c0,1.024,1.536,2.048,2.56,2.048l20.992-3.072     c1.536-0.512,2.048-1.536,2.048-3.072C344.064,74.529,343.04,74.017,341.504,74.017z" fill="#5c4b51"/><path d="M291.84,81.697c-29.696,3.584-60.416,5.632-90.624,6.656l-19.968,0.512c-4.096,0-8.704,0.512-12.8,0.512h-1.536     c-1.024,0-2.048,0-3.072,0c-1.536,0-2.56,1.024-2.56,2.56s1.024,2.56,2.56,2.56c1.024,0,2.048,0,4.096,0h1.536     c4.096,0,8.704,0,12.8-0.512l19.456-0.512c30.208-1.024,60.928-3.072,91.136-6.656c1.024-0.512,2.048-1.536,2.048-3.072     C294.4,82.721,293.376,81.697,291.84,81.697z" fill="#5c4b51"/><path d="M28.672,238.881c-1.536,0-2.56,1.024-2.56,2.56c0,81.92,66.56,148.992,148.992,148.992     c22.528,0,44.032-5.12,64.512-14.336c1.024-1.024,1.536-2.56,1.024-3.584c-1.024-1.024-2.56-1.536-3.584-1.024     c-19.456,9.216-40.448,13.824-61.952,13.824c-79.36,0-143.872-64.512-143.872-143.872     C31.232,239.905,30.208,238.881,28.672,238.881z" fill="#5c4b51"/><path d="M266.24,358.688c0.512,0,1.024,0,1.536,0c6.656-5.632,13.312-12.288,19.456-18.944c1.024-1.024,1.024-2.56,0-3.584     c-1.024-1.024-2.56-1.024-3.584,0c-5.632,6.656-12.288,12.288-18.944,17.92c-1.024,1.024-1.536,2.56-0.512,3.584     C264.704,358.177,265.728,358.688,266.24,358.688z" fill="#5c4b51"/><path d="M297.472,324.896c0.512,0,1.536-0.512,2.048-1.024c4.096-5.632,7.168-11.264,10.24-17.408     c1.024-1.536,0-3.072-1.024-3.584c-1.536-1.024-3.072,0-3.584,1.024c-3.072,5.632-6.144,11.264-9.728,16.896     c-1.024,1.024-0.512,2.56,0.512,3.584C296.448,324.896,296.96,324.896,297.472,324.896z" fill="#5c4b51"/><path d="M242.176,170.785c-2.048-2.048-5.12-2.048-7.168,0c-2.048,2.048-2.048,5.12,0,7.168c1.536,1.536,3.072,3.072,4.608,4.608     c1.024,1.024,2.048,1.536,3.584,1.536c1.024,0,2.56-0.512,3.584-0.512c2.048-2.048,2.56-5.12,0.512-7.168     C245.76,174.369,244.224,172.321,242.176,170.785z" fill="#5c4b51"/><path d="M193.876,235.273c-0.486-1.858-1.223-3.613-2.182-5.229l21.298-13.691c2.56-1.536,3.072-4.608,1.536-7.168     s-4.608-3.072-7.168-1.536l-21.504,14.336c-0.457,0.274-0.825,0.611-1.152,0.971c-1.673-1.024-3.499-1.812-5.438-2.324     l5.054-25.271c0.512-3.072-1.536-5.632-4.096-6.144c-3.072-0.512-5.632,1.536-6.144,4.096l-5.12,25.6     c-0.099,0.592-0.1,1.165-0.023,1.708c-1.813,0.474-3.528,1.185-5.111,2.11l-13.809-20.714c-1.536-2.56-4.608-3.072-7.168-1.536     c-2.56,1.536-3.072,4.608-1.536,7.168l14.336,21.504c0.265,0.265,0.564,0.528,0.889,0.775c-0.985,1.636-1.743,3.415-2.241,5.303     l-25.271-5.054c-3.072-0.512-5.632,1.536-6.144,4.096c-0.512,3.072,1.536,5.632,4.096,6.144l25.6,5.12c0.512,0,0.512,0,1.024,0     c0.228,0,0.446-0.027,0.665-0.051c0.523,2.029,1.346,3.935,2.426,5.673c-0.006,0.004-0.013,0.006-0.019,0.009l-21.504,14.336     c-2.56,1.536-3.072,4.608-1.536,7.168c1.024,1.024,2.56,2.048,4.096,2.048c1.024,0,2.048-0.512,3.072-0.512l21.504-14.336     c0.738-0.443,1.285-1.022,1.683-1.672c1.525,0.872,3.172,1.542,4.907,2l-5.054,25.271c-0.512,3.072,1.536,5.632,4.096,6.144     c0.512,0,0.512,0,1.024,0c2.56,0,4.608-1.536,5.12-4.096l5.12-25.6c0.099-0.592,0.1-1.165,0.023-1.708     c1.86-0.487,3.616-1.225,5.234-2.184l14.711,21.813c1.024,1.024,2.56,2.048,4.096,2.048c0.512,0,1.536-0.512,2.56-1.024     c2.56-1.536,3.072-4.608,1.536-7.168l-14.336-21.504c-0.358-0.597-0.806-1.071-1.305-1.445c0.939-1.593,1.663-3.319,2.145-5.145     l25.271,5.054c0.512,0,0.512,0,1.024,0c2.56,0,4.608-1.536,5.12-4.096c0.512-3.072-1.536-5.632-4.096-6.144l-25.6-5.12     C194.992,235.198,194.419,235.196,193.876,235.273z M174.791,255.74c-0.466-0.052-0.921-0.052-1.355,0.006     c-8.14-0.313-14.329-6.476-14.682-14.603c0.053-0.462,0.054-0.912-0.001-1.343c0.149-3.367,1.48-6.535,3.595-9.063     c0.156-0.02,0.311-0.049,0.467-0.049c0.99-0.594,1.665-1.42,2.043-2.355c2.608-2.03,5.821-3.277,9.221-3.277     c3.804,0,7.376,1.448,10.123,3.857c0.043,0.079,0.07,0.161,0.117,0.239c0.301,0.301,0.651,0.599,1.028,0.875     c2.361,2.544,3.883,5.897,4.055,9.678c-0.052,0.463-0.052,0.914,0.005,1.345C189.083,248.748,182.917,255.369,174.791,255.74z" fill="#5c4b51"/></g><g transform="matrix(0.14467592537403107 0 0 0.14467592537403107 274 20.000001907348633)" id="L1_1"><path d="M402.271,168.448l-2.048-8.192c-1.536-6.144-6.144-11.264-12.288-13.312l-6.656-2.08v-4.576     c0-42.496-32.768-76.288-74.752-78.848c-0.512,0-0.512,0-1.024,0h-3.072c-1.536,0-2.56,0.512-3.584,1.536     c-5.34,2.427-9.293,7.619-9.689,13.824h-51.289c-0.512-8.714-7.465-15.36-16.334-15.36h-34.816V10.752     c0-6.144-4.096-10.752-10.24-10.752h-10.752c-5.632,0-9.728,3.584-10.752,8.704l-10.752,61.952     c-0.08,0.483-0.091,0.95-0.053,1.402c-23.525,13.65-39.371,39.095-39.371,68.23V179.2h-15.36v-46.08     c0-3.072-2.048-5.12-5.12-5.12h-10.24c-8.704,0-15.36,6.656-15.36,15.36v5.12c0,0.512,0,0.512-0.512,0.512H38.751     c-0.512,0-0.512,0-0.512-0.512v-5.12c0-8.704-6.656-15.36-15.36-15.36h-10.24c-3.072,0-5.12,2.048-5.12,5.12v143.36     c0,3.072,2.048,5.12,5.12,5.12h14.848c8.704,0,15.36-6.656,15.36-15.36v-4.608c0-0.512,0-0.512,0.512-0.512h14.848     c0.512,0,0.512,0,0.512,0.512v4.608c0,8.704,6.656,15.36,15.36,15.36h10.24c3.072,0,5.12-2.048,5.12-5.12V230.4h15.36v38.912     c0,27.648,14.336,53.76,38.4,67.584c0.303,0.182,0.614,0.33,0.928,0.454l10.336,68.154c1.024,5.632,5.12,9.216,10.752,9.216     h10.752c6.144,0,10.752-4.608,10.24-10.752v-56.7c0.828,0.568,1.867,0.892,3.072,0.892h32.256c8.87,0,15.823-6.646,16.334-15.36     h51.289c0.396,6.205,4.349,11.397,9.689,13.824c1.024,1.024,2.048,1.536,3.584,1.536h3.072c0.512,0,1.024,0,1.536,0     c12.685-0.783,24.549-4.5,34.917-10.483l5.531,26.867c1.024,5.632,5.632,9.216,10.752,9.216h12.288     c6.144,0,10.752-4.608,10.752-10.752v-93.696v-2.56V265.6l5.632-1.408c6.656-2.048,11.776-7.168,13.312-13.312l1.536-5.632     C408.927,220.16,408.927,193.536,402.271,168.448z M276.319,182.272c1.536,0,2.56-1.024,2.56-2.56V87.04h10.24v235.52h-51.2     V87.04h35.84v92.672C273.759,181.248,274.783,182.272,276.319,182.272z M165.215,10.752c0-0.512,0-0.512,0.512-0.512h10.752     c0.512,0,0.512,0,0.512,0.512v50.989c-7.506,0.629-14.712,2.306-21.474,4.893L165.215,10.752z M79.199,271.36h-5.12     c-3.072,0-5.12-2.048-5.12-5.12v-4.608c0-6.144-4.608-10.752-10.752-10.752H43.359v-37.888c0-1.536-1.024-2.56-2.56-2.56     c-1.536,0-2.56,1.024-2.56,2.56v39.099c-3.411,1.758-5.632,5.277-5.632,9.541v4.608c0,3.072-2.048,5.12-5.12,5.12h-9.728V138.24     h5.12c3.072,0,5.12,2.048,5.12,5.12v4.608c0,6.144,4.608,10.752,10.752,10.752h19.456c0.174,0,0.341-0.017,0.512-0.024v23.576     c0,1.536,1.024,2.56,2.56,2.56s2.56-1.024,2.56-2.56v-25.055c3.116-1.837,5.12-5.205,5.12-9.249v-4.608     c0-3.072,2.048-5.12,5.12-5.12h5.12v46.08v40.96V271.36z M89.439,220.16v-30.72h15.36v30.72H89.439z M227.679,331.776     c0,3.584-2.56,6.144-6.144,6.144h-32.256c-1.205,0-2.244,0.324-3.072,0.892V325.12c0-3.072-2.048-5.12-5.12-5.12     c-3.072,0-5.12,2.048-5.12,5.12v78.848c0,0.512,0,0.512-0.512,0.512h-10.752c0,0-0.512,0-0.512-0.512l-16.384-108.032     c0-2.56-2.56-4.608-5.632-4.096c-2.56,0-4.608,3.072-4.096,5.632l3.969,26.174c-16.93-12.853-27.009-32.986-27.009-54.334V225.28     v-40.96v-44.032c0-37.888,30.72-68.608,68.608-68.608h37.888c3.584,0,6.144,2.56,6.144,6.144v4.096v245.76V331.776z      M304.991,337.92c-3.072-0.512-5.632-3.072-5.632-6.144v-4.096V81.92v-4.096c0-3.072,2.56-5.632,5.632-6.144     c36.864,1.536,66.048,31.232,66.048,68.608v126.464v2.56c0,22.243-10.338,41.763-26.477,54.25     c-0.049,0.008-0.098,0.012-0.147,0.022c-1.685,0.281-2.904,1.334-3.581,2.648C330.551,333.141,318.275,337.366,304.991,337.92z      M371.039,362.496c0,0.512,0,0.512-0.512,0.512h-12.288c0,0-0.512,0-0.512-0.512l-6.413-31.147     c7.97-6.272,14.682-14.052,19.725-22.938V362.496z M391.519,242.688l-1.536,5.632c-1.024,3.072-3.072,5.12-6.144,6.144     l-2.56,0.683v-99.435l3.072,0.96c2.56,1.024,4.608,3.072,5.632,6.144l2.048,8.192     C398.687,195.584,398.175,218.112,391.519,242.688z" fill="#010002"/><path d="M273.759,227.84c0,1.536,1.024,2.56,2.56,2.56s2.56-1.536,2.56-2.56v-36.864c0-1.536-1.024-2.56-2.56-2.56     s-2.56,1.024-2.56,2.56V227.84z" fill="#010002"/><path d="M250.719,273.92c-1.536,0-2.56,1.024-2.56,2.56v33.28c0,1.536,1.024,2.56,2.56,2.56c1.536,0,2.56-1.536,2.56-2.56v-33.28     C253.279,274.944,252.255,273.92,250.719,273.92z" fill="#010002"/><path d="M250.719,254.976c-1.536,0-2.56,1.024-2.56,2.56v3.584c0,1.536,1.024,2.56,2.56,2.56c1.536,0,2.56-1.536,2.56-2.56     v-3.584C253.279,256,252.255,254.976,250.719,254.976z" fill="#010002"/><path d="M61.279,194.56c-1.536,0-2.56,1.024-2.56,2.56v24.576c0,1.536,1.024,2.56,2.56,2.56s2.56-1.024,2.56-2.56V197.12     C63.839,195.584,62.815,194.56,61.279,194.56z" fill="#010002"/><path d="M40.799,186.368c-1.536,0-2.56,1.024-2.56,2.56v9.216c0,1.536,1.024,2.56,2.56,2.56c1.536,0,2.56-1.536,2.56-2.56v-9.216     C43.359,187.392,42.335,186.368,40.799,186.368z" fill="#010002"/><path d="M138.591,108.032c0.512,0,1.024,0,1.536-0.512c13.312-12.8,30.72-19.968,49.152-19.968h11.264     c1.536,0,2.56-1.024,2.56-2.56c0-1.536-1.024-2.56-2.56-2.56h-11.264c-19.456,0-38.4,7.168-52.736,20.992     c-1.024,1.024-1.024,2.56,0,3.584C137.055,107.52,138.079,108.032,138.591,108.032z" fill="#010002"/><path d="M201.055,111.616h-11.264c-19.456,0-37.888,6.144-52.224,17.408c-1.024,1.024-1.536,2.56-0.512,3.584     c0.512,0.512,1.536,1.024,2.048,1.024c0.512,0,1.024,0,1.536-0.512c13.312-10.752,30.72-16.384,49.152-16.384h11.264     c1.536,0,2.56-1.024,2.56-2.56S202.591,111.616,201.055,111.616z" fill="#010002"/><path d="M201.055,138.24h-11.264c-19.968,0-38.912,4.096-52.736,11.264c-1.024,1.024-1.536,2.56-1.024,3.584     c0,1.024,1.024,1.536,2.048,1.536c0.512,0,0.512,0,1.536,0c13.312-7.168,31.232-11.264,50.176-11.264h11.264     c1.536,0,2.56-1.024,2.56-2.56C203.615,139.264,202.591,138.24,201.055,138.24z" fill="#010002"/><path d="M201.055,168.96h-11.264c-19.456,0-37.888,1.536-51.712,4.608c-1.536,0.512-2.56,1.536-2.048,3.072     c0.512,1.024,1.536,2.048,2.56,2.048h0.512c13.824-3.072,31.744-4.608,50.688-4.608h11.264c1.536,0,2.56-1.024,2.56-2.56     S202.591,168.96,201.055,168.96z" fill="#010002"/><path d="M201.055,286.208h-11.264c-18.944,0-36.352-6.144-49.664-16.896c-1.024-0.512-2.56-0.512-3.584,0.512     c-0.512,1.024-0.512,2.56,0.512,3.584c14.336,11.776,32.768,17.92,52.736,17.92h11.264c1.536,0,2.56-1.024,2.56-2.56     C203.615,287.232,202.591,286.208,201.055,286.208z" fill="#010002"/><path d="M189.791,266.24h11.264c1.536,0,2.048-1.024,2.048-2.56c0-1.536-1.024-2.56-2.56-2.56h-11.264     c-18.944,0-36.864-4.096-50.176-11.264c-1.536-0.512-3.072,0-3.584,1.024c-0.512,1.536,0,3.072,1.536,3.584     C151.391,262.144,169.823,266.24,189.791,266.24z" fill="#010002"/><path d="M201.055,230.4h-11.264c-18.944,0-36.864-1.536-50.688-4.608c-1.536,0-2.56,0.512-3.072,2.048     c0,1.536,0.512,2.56,2.048,3.072c13.824,3.072,32.256,4.608,51.712,4.608h11.264c1.536,0,2.56-1.024,2.56-2.56     S202.591,230.4,201.055,230.4z" fill="#010002"/><path d="M201.055,199.68h-62.464c-1.536,0-2.56,1.024-2.56,2.56c0,1.536,1.024,2.56,2.56,2.56h62.464     c1.536,0,2.56-1.024,2.56-2.56C203.615,200.704,202.591,199.68,201.055,199.68z" fill="#010002"/><path d="M314.207,88.576c14.848,2.048,27.648,8.704,38.4,18.944c0.512,0.512,1.024,0.512,1.536,0.512     c0.512,0,1.536,0,2.048-0.512c1.024-1.024,1.024-2.56,0-3.584c-11.264-11.264-25.6-17.92-40.96-20.48     c-1.536-0.512-3.072,0.512-3.072,2.048C311.647,87.04,312.671,88.576,314.207,88.576z" fill="#010002"/><path d="M355.679,293.888c-1.024-1.024-2.56-1.024-3.584,0c-10.24,10.24-23.552,16.896-37.888,18.944     c-1.536,0.512-2.048,1.536-2.048,3.072c0,1.024,1.536,2.048,2.56,2.048c15.872-2.56,29.696-9.728,40.96-20.48     C356.703,296.448,356.703,294.912,355.679,293.888z" fill="#010002"/><path d="M313.695,116.736c14.336,2.048,27.648,7.168,38.4,15.872c0.512,0.512,1.024,0.512,1.536,0.512     c1.024,0,1.536-0.512,2.56-1.024c1.024-1.024,0.512-2.56-0.512-3.584c-11.264-9.216-25.6-14.848-40.96-16.896     c-1.536-0.512-3.072,0.512-3.072,2.048C311.135,115.2,312.159,116.736,313.695,116.736z" fill="#010002"/><path d="M355.679,150.528c-11.776-6.144-26.112-9.728-41.472-11.264c-1.024,0-2.56,1.024-2.56,2.56c0,1.024,1.024,2.56,2.56,2.56     c14.848,1.536,28.672,5.12,39.424,10.752c0,0.512,0.512,0.512,1.024,0.512c1.024,0,2.048-0.512,2.048-1.536     C357.215,152.576,356.703,151.04,355.679,150.528z" fill="#010002"/><path d="M354.655,172.544c-11.264-2.56-25.088-4.096-39.936-4.608c-1.536,0-2.56,1.024-2.56,2.56s1.024,2.56,2.56,2.56     c14.848,0.512,28.16,2.048,38.912,4.608h0.512c1.024,0,2.048-1.024,2.56-2.048C356.703,174.08,356.191,173.056,354.655,172.544z" fill="#010002"/><path d="M314.207,291.84c15.872-2.048,30.208-8.192,40.96-16.896c1.024-1.024,1.536-2.56,0.512-3.584s-2.56-1.536-3.584-0.512     c-10.752,8.192-24.064,13.824-38.4,15.872c-1.024,0.512-2.048,1.536-2.048,3.072C311.647,290.816,313.183,291.84,314.207,291.84z     " fill="#010002"/><path d="M353.631,247.808c-10.752,5.632-24.064,9.728-38.912,10.752c-1.536,0-2.56,1.024-2.56,2.56c0,1.536,1.024,2.56,2.56,2.56     c15.872-1.536,29.696-5.12,41.472-11.264c1.024-1.024,1.536-2.56,1.024-3.584C356.191,247.808,354.655,247.296,353.631,247.808z" fill="#010002"/><path d="M314.207,235.52c15.36-0.512,29.184-2.048,40.448-4.608c1.536-0.512,2.56-1.536,2.048-3.072     c-0.512-1.536-1.536-2.56-3.072-2.048c-10.752,2.56-24.576,4.096-39.424,4.608c-1.536,0-2.56,1.024-2.56,2.56     S312.671,235.52,314.207,235.52z" fill="#010002"/><path d="M314.719,199.68c-1.024,0-2.56,1.024-2.56,2.56c0,1.536,1.024,2.56,2.56,2.56h39.424c1.536,0,2.56-1.024,2.56-2.56     c0-1.536-1.024-2.56-2.56-2.56H314.719z" fill="#010002"/></g><g transform="matrix(0.15419407188892365 0 0 0.15419407188892365 105 217)" id="L1_2"><path d="M119.808,65.024c1.024,0,2.048-1.024,2.56-2.048l1.024-6.144c0.512-1.536-0.512-3.072-2.048-3.072     c-1.536-0.512-3.072,0.512-3.072,2.048l-1.024,6.144C117.248,63.488,117.76,64.512,119.808,65.024z"/><path d="M113.152,104.448c1.024,0,2.56-0.512,2.56-2.048l4.096-23.04c0.512-1.536-0.512-3.072-2.048-3.072     c-1.536-0.512-3.072,0.512-3.072,2.048l-4.096,23.04C110.592,102.912,111.616,104.448,113.152,104.448z"/><path d="M155.136,226.304c1.024,0,2.56-1.024,2.56-2.56l0.512-8.704c0-1.024-1.024-2.56-2.56-2.56c-1.024,0-2.56,1.024-2.56,2.56     l-0.512,8.704C152.576,224.768,153.6,226.304,155.136,226.304z"/><path d="M316.416,250.368l1.024,6.144c0.512,1.024,1.536,2.048,2.56,2.048h0.512c1.536-0.512,2.56-1.536,2.048-3.072     l-1.024-6.144c-0.512-1.536-1.536-2.56-3.072-2.048C316.928,247.808,315.904,248.832,316.416,250.368z"/><path d="M312.832,233.984c0.512,1.024,1.536,2.048,2.56,2.048c0,0,0,0,0.512,0c1.536-0.512,2.56-1.536,2.048-3.072l-3.072-13.824     c-0.512-1.536-1.536-2.56-3.072-2.048c-1.536,0.512-2.56,1.536-2.048,3.072L312.832,233.984z"/><path d="M374.272,275.968c-2.048-2.56-5.632-4.096-9.216-3.584l-5.632,0.512c-1.211,0.163-2.436,0.323-3.665,0.482L301.414,36.24     c2.579-0.374,4.993-1.733,6.298-3.472c2.048-2.56,3.072-5.632,2.048-8.704l-1.536-6.656c-1.536-6.656-7.168-11.264-13.312-11.776     l-4.608-1.024C262.656,1.536,226.816,0,189.952,0S117.248,1.536,89.6,4.608L84.992,5.12c-6.656,1.024-11.776,5.632-13.312,11.776     l-1.536,6.656c-0.512,3.072,0,6.144,2.048,8.704c1.507,2.26,3.847,3.68,6.405,4.073L29.294,272.984     c-1.587-0.197-3.161-0.397-4.718-0.6h-0.512c-3.584-0.512-7.168,1.024-9.216,3.584s-2.56,5.632-2.048,8.704l2.048,11.264     c1.536,6.656,6.656,11.264,13.312,12.288c24.32,3.243,52.351,5.771,82.432,7.437v51.443c0,6.144,4.096,12.288,10.24,14.336     l2.048,1.024c11.776,4.096,41.472,6.656,70.656,6.656c28.16,0,55.808-2.56,68.096-6.656l3.072-1.024     c6.144-2.048,10.24-7.68,10.24-14.336v-2.854c1.534-0.022,2.786-0.085,3.584-0.218c1.024,0,1.536,0,1.536,0     c9.728,0,17.408-7.68,17.408-17.408c0-9.728-7.68-17.92-17.408-17.92c-1.063,0-3.117,0-5.632,0v-12.711     c29.754-1.527,57.625-3.945,81.92-7.257l5.12-0.512c6.144-1.024,11.776-5.632,12.8-12.288l2.048-11.264     C376.832,281.6,376.32,278.528,374.272,275.968z M152.064,252.416c-1.024,0-2.56,1.024-2.56,2.56l-1.996,26.444     c-10.315-0.3-20.494-0.696-30.48-1.182L147.436,31.91c6.706-0.22,13.547-0.387,20.486-0.5L154.624,194.56     c0,1.024,1.024,2.56,2.56,2.56s2.56-1.024,2.56-2.56l13.303-163.22c4.915-0.061,9.87-0.095,14.857-0.103v250.857     c-11.864-0.052-23.653-0.233-35.286-0.534l2.006-26.584C154.624,253.952,153.6,252.416,152.064,252.416z M109.056,128     c-1.536-0.512-3.072,0.512-3.072,2.048L81.408,276.48c0,0.62,0.091,1.152,0.325,1.605c-7.022-0.52-13.895-1.086-20.596-1.697     l45.434-242.313c11.17-0.85,23.116-1.512,35.597-1.98l-30.353,247.88c-8.695-0.454-17.231-0.976-25.57-1.564     c0.177-0.284,0.283-0.593,0.283-0.907l24.576-146.432C111.616,129.536,110.592,128,109.056,128z M192,31.237     c3.953,0.006,7.894,0.025,11.813,0.065c-0.02,0.143-0.037,0.288-0.037,0.442l25.514,250.033     c-11.282,0.223-22.712,0.335-34.218,0.335c-1.025,0-2.048-0.004-3.072-0.005V31.237z M233.94,281.679l-25.543-250.32     c7.097,0.095,14.109,0.246,20.989,0.452l35.552,248.865C254.782,281.107,244.432,281.442,233.94,281.679z M270.171,280.445     L234.676,31.982c5.209,0.18,10.332,0.391,15.344,0.635l45.916,244.886c0.263,0.527,0.663,1.05,1.128,1.438     C288.302,279.523,279.322,280.024,270.171,280.445z M301.056,276.48L255.384,32.896c5.275,0.287,10.422,0.608,15.395,0.97     l34.374,164.79c0.512,1.024,1.536,2.048,2.56,2.048c0.512,0,0.512,0,0.512,0c1.536-0.512,2.56-1.536,2.048-3.072L276.198,34.277     c4.992,0.4,9.773,0.844,14.36,1.323L345.34,274.65c-14.068,1.619-29.142,2.974-44.951,4.066     C301.103,278.16,301.368,277.416,301.056,276.48z M81.408,19.968c0.512-2.56,2.56-4.096,4.608-4.096l5.12-0.512     c27.136-3.072,62.464-5.12,99.328-5.12c36.352,0,71.68,2.048,99.328,5.12h4.096c2.56,0.512,4.096,2.048,4.608,4.096l1.536,6.656     l-6.144-0.512c-28.672-3.072-65.536-4.096-103.936-4.096c-37.888,0-74.752,1.024-103.424,4.096l-6.144,0.512L81.408,19.968z      M89.416,35.597c3.798-0.39,7.722-0.754,11.762-1.092L55.917,275.899c-5.535-0.531-10.943-1.094-16.213-1.686L89.416,35.597z      M261.12,371.712l-3.072,1.024c-27.136,9.216-104.96,9.216-131.584-0.512l-2.048-0.512c-2.048-0.512-3.584-2.56-3.584-4.608     v-21.729c0.17,0.075,0.338,0.155,0.512,0.225l2.048,0.512c11.776,4.096,40.96,7.68,69.632,7.68     c18.184,0,35.883-2.356,49.048-3.904c1.658,7.703,8.297,13.377,16.488,13.607v0.537c1.923,0,4.03,0.037,6.144,0.081v2.991     C264.704,369.152,263.168,371.2,261.12,371.712z M262.482,334.336c5.06,1.522,8.878,6.298,8.878,11.776     c0,6.656-5.632,12.288-12.288,12.288c-6.656,0-12.288-5.632-12.288-12.288c0-6.333,4.64-11.728,11.264-12.238v0.462     C259.02,334.336,260.601,334.336,262.482,334.336z M292.352,346.624c0,6.656-5.632,12.288-12.288,12.288c-0.44,0-2.77,0-6.012,0     c-0.43-0.627-1.012-1.116-1.705-1.464c2.581-3.031,4.134-6.973,4.134-11.336c0-4.452-1.729-8.464-4.474-11.518     c0.129-0.081,0.254-0.166,0.374-0.258c3.465,0,6.479,0,7.683,0C286.72,334.336,292.352,339.968,292.352,346.624z      M264.192,328.954c-0.609,0.03-1.209,0.061-1.789,0.09c-1.086-0.221-2.201-0.339-3.331-0.339c-9.27,0-16.664,6.979-17.341,16.053     c-44.052,5.48-87.94,6.868-116.803-3.765l-2.048-0.512c-0.749-0.25-1.435-0.625-2.048-1.089v-23.201     c23.871,1.149,48.879,1.761,74.24,1.761c23.514,0,46.781-0.491,69.12-1.471V328.954z M363.52,293.888     c0,2.048-2.048,3.584-4.096,4.096l-5.12,0.512c-44.032,6.144-100.864,9.728-159.744,9.728c-60.928,0-119.808-4.096-165.888-10.24     c-2.048-0.512-3.584-2.048-4.096-4.096l-2.048-11.264l1.024-0.512c47.616,6.144,108.544,9.216,171.52,9.216     c60.928,0,119.808-2.56,165.888-8.704l5.632-0.512L363.52,293.888z"/></g><g transform="matrix(0.15419407188892365 0 0 0.15419407188892365 310 194)" id="L1_3"><path d="M119.808,65.024c1.024,0,2.048-1.024,2.56-2.048l1.024-6.144c0.512-1.536-0.512-3.072-2.048-3.072     c-1.536-0.512-3.072,0.512-3.072,2.048l-1.024,6.144C117.248,63.488,117.76,64.512,119.808,65.024z" fill="#000000"/><path d="M113.152,104.448c1.024,0,2.56-0.512,2.56-2.048l4.096-23.04c0.512-1.536-0.512-3.072-2.048-3.072     c-1.536-0.512-3.072,0.512-3.072,2.048l-4.096,23.04C110.592,102.912,111.616,104.448,113.152,104.448z" fill="#000000"/><path d="M155.136,226.304c1.024,0,2.56-1.024,2.56-2.56l0.512-8.704c0-1.024-1.024-2.56-2.56-2.56c-1.024,0-2.56,1.024-2.56,2.56     l-0.512,8.704C152.576,224.768,153.6,226.304,155.136,226.304z" fill="#000000"/><path d="M316.416,250.368l1.024,6.144c0.512,1.024,1.536,2.048,2.56,2.048h0.512c1.536-0.512,2.56-1.536,2.048-3.072     l-1.024-6.144c-0.512-1.536-1.536-2.56-3.072-2.048C316.928,247.808,315.904,248.832,316.416,250.368z" fill="#000000"/><path d="M312.832,233.984c0.512,1.024,1.536,2.048,2.56,2.048c0,0,0,0,0.512,0c1.536-0.512,2.56-1.536,2.048-3.072l-3.072-13.824     c-0.512-1.536-1.536-2.56-3.072-2.048c-1.536,0.512-2.56,1.536-2.048,3.072L312.832,233.984z" fill="#000000"/><path d="M374.272,275.968c-2.048-2.56-5.632-4.096-9.216-3.584l-5.632,0.512c-1.211,0.163-2.436,0.323-3.665,0.482L301.414,36.24     c2.579-0.374,4.993-1.733,6.298-3.472c2.048-2.56,3.072-5.632,2.048-8.704l-1.536-6.656c-1.536-6.656-7.168-11.264-13.312-11.776     l-4.608-1.024C262.656,1.536,226.816,0,189.952,0S117.248,1.536,89.6,4.608L84.992,5.12c-6.656,1.024-11.776,5.632-13.312,11.776     l-1.536,6.656c-0.512,3.072,0,6.144,2.048,8.704c1.507,2.26,3.847,3.68,6.405,4.073L29.294,272.984     c-1.587-0.197-3.161-0.397-4.718-0.6h-0.512c-3.584-0.512-7.168,1.024-9.216,3.584s-2.56,5.632-2.048,8.704l2.048,11.264     c1.536,6.656,6.656,11.264,13.312,12.288c24.32,3.243,52.351,5.771,82.432,7.437v51.443c0,6.144,4.096,12.288,10.24,14.336     l2.048,1.024c11.776,4.096,41.472,6.656,70.656,6.656c28.16,0,55.808-2.56,68.096-6.656l3.072-1.024     c6.144-2.048,10.24-7.68,10.24-14.336v-2.854c1.534-0.022,2.786-0.085,3.584-0.218c1.024,0,1.536,0,1.536,0     c9.728,0,17.408-7.68,17.408-17.408c0-9.728-7.68-17.92-17.408-17.92c-1.063,0-3.117,0-5.632,0v-12.711     c29.754-1.527,57.625-3.945,81.92-7.257l5.12-0.512c6.144-1.024,11.776-5.632,12.8-12.288l2.048-11.264     C376.832,281.6,376.32,278.528,374.272,275.968z M152.064,252.416c-1.024,0-2.56,1.024-2.56,2.56l-1.996,26.444     c-10.315-0.3-20.494-0.696-30.48-1.182L147.436,31.91c6.706-0.22,13.547-0.387,20.486-0.5L154.624,194.56     c0,1.024,1.024,2.56,2.56,2.56s2.56-1.024,2.56-2.56l13.303-163.22c4.915-0.061,9.87-0.095,14.857-0.103v250.857     c-11.864-0.052-23.653-0.233-35.286-0.534l2.006-26.584C154.624,253.952,153.6,252.416,152.064,252.416z M109.056,128     c-1.536-0.512-3.072,0.512-3.072,2.048L81.408,276.48c0,0.62,0.091,1.152,0.325,1.605c-7.022-0.52-13.895-1.086-20.596-1.697     l45.434-242.313c11.17-0.85,23.116-1.512,35.597-1.98l-30.353,247.88c-8.695-0.454-17.231-0.976-25.57-1.564     c0.177-0.284,0.283-0.593,0.283-0.907l24.576-146.432C111.616,129.536,110.592,128,109.056,128z M192,31.237     c3.953,0.006,7.894,0.025,11.813,0.065c-0.02,0.143-0.037,0.288-0.037,0.442l25.514,250.033     c-11.282,0.223-22.712,0.335-34.218,0.335c-1.025,0-2.048-0.004-3.072-0.005V31.237z M233.94,281.679l-25.543-250.32     c7.097,0.095,14.109,0.246,20.989,0.452l35.552,248.865C254.782,281.107,244.432,281.442,233.94,281.679z M270.171,280.445     L234.676,31.982c5.209,0.18,10.332,0.391,15.344,0.635l45.916,244.886c0.263,0.527,0.663,1.05,1.128,1.438     C288.302,279.523,279.322,280.024,270.171,280.445z M301.056,276.48L255.384,32.896c5.275,0.287,10.422,0.608,15.395,0.97     l34.374,164.79c0.512,1.024,1.536,2.048,2.56,2.048c0.512,0,0.512,0,0.512,0c1.536-0.512,2.56-1.536,2.048-3.072L276.198,34.277     c4.992,0.4,9.773,0.844,14.36,1.323L345.34,274.65c-14.068,1.619-29.142,2.974-44.951,4.066     C301.103,278.16,301.368,277.416,301.056,276.48z M81.408,19.968c0.512-2.56,2.56-4.096,4.608-4.096l5.12-0.512     c27.136-3.072,62.464-5.12,99.328-5.12c36.352,0,71.68,2.048,99.328,5.12h4.096c2.56,0.512,4.096,2.048,4.608,4.096l1.536,6.656     l-6.144-0.512c-28.672-3.072-65.536-4.096-103.936-4.096c-37.888,0-74.752,1.024-103.424,4.096l-6.144,0.512L81.408,19.968z      M89.416,35.597c3.798-0.39,7.722-0.754,11.762-1.092L55.917,275.899c-5.535-0.531-10.943-1.094-16.213-1.686L89.416,35.597z      M261.12,371.712l-3.072,1.024c-27.136,9.216-104.96,9.216-131.584-0.512l-2.048-0.512c-2.048-0.512-3.584-2.56-3.584-4.608     v-21.729c0.17,0.075,0.338,0.155,0.512,0.225l2.048,0.512c11.776,4.096,40.96,7.68,69.632,7.68     c18.184,0,35.883-2.356,49.048-3.904c1.658,7.703,8.297,13.377,16.488,13.607v0.537c1.923,0,4.03,0.037,6.144,0.081v2.991     C264.704,369.152,263.168,371.2,261.12,371.712z M262.482,334.336c5.06,1.522,8.878,6.298,8.878,11.776     c0,6.656-5.632,12.288-12.288,12.288c-6.656,0-12.288-5.632-12.288-12.288c0-6.333,4.64-11.728,11.264-12.238v0.462     C259.02,334.336,260.601,334.336,262.482,334.336z M292.352,346.624c0,6.656-5.632,12.288-12.288,12.288c-0.44,0-2.77,0-6.012,0     c-0.43-0.627-1.012-1.116-1.705-1.464c2.581-3.031,4.134-6.973,4.134-11.336c0-4.452-1.729-8.464-4.474-11.518     c0.129-0.081,0.254-0.166,0.374-0.258c3.465,0,6.479,0,7.683,0C286.72,334.336,292.352,339.968,292.352,346.624z      M264.192,328.954c-0.609,0.03-1.209,0.061-1.789,0.09c-1.086-0.221-2.201-0.339-3.331-0.339c-9.27,0-16.664,6.979-17.341,16.053     c-44.052,5.48-87.94,6.868-116.803-3.765l-2.048-0.512c-0.749-0.25-1.435-0.625-2.048-1.089v-23.201     c23.871,1.149,48.879,1.761,74.24,1.761c23.514,0,46.781-0.491,69.12-1.471V328.954z M363.52,293.888     c0,2.048-2.048,3.584-4.096,4.096l-5.12,0.512c-44.032,6.144-100.864,9.728-159.744,9.728c-60.928,0-119.808-4.096-165.888-10.24     c-2.048-0.512-3.584-2.048-4.096-4.096l-2.048-11.264l1.024-0.512c47.616,6.144,108.544,9.216,171.52,9.216     c60.928,0,119.808-2.56,165.888-8.704l5.632-0.512L363.52,293.888z" fill="#000000"/></g><g transform="matrix(0.13331910967826843 0 0 0.13331910967826843 216 138)" id="L1_4"><path d="M122.112,91.648c0-8.192-6.144-14.848-14.848-14.848c-8.704,0-14.848,7.168-14.848,15.36s6.656,14.848,14.848,14.848     S122.112,99.84,122.112,91.648z M96.512,92.16c0-6.144,5.12-10.752,10.752-10.752s10.24,5.12,10.24,10.752     s-4.096,10.24-10.24,10.24C101.12,102.4,96.512,98.304,96.512,92.16z" fill="#010002"/><path d="M342.784,76.8c-8.192,0-14.848,7.168-14.848,15.36s6.656,14.848,14.848,14.848c8.704,0,15.36-6.144,15.36-14.848     S350.976,76.8,342.784,76.8z M342.784,102.4c-5.632,0-10.752-4.096-10.752-10.24s5.12-10.752,10.752-10.752     c6.144,0,10.752,4.096,10.752,10.24C353.536,97.792,348.416,102.4,342.784,102.4z" fill="#010002"/><path d="M434.944,92.16c0-50.688-41.472-92.16-92.16-92.16c-1.351,0-2.694,0.035-4.032,0.093C338.406,0.032,338.043,0,337.664,0     h-225.28c-0.383,0-0.749,0.032-1.098,0.094C109.952,0.036,108.612,0,107.264,0c-50.688,0-92.16,40.96-92.16,91.648     c0,47.77,36.836,87.348,83.504,91.747c0.595,0.263,1.267,0.413,2,0.413l74.525,4.247c-7.12,6.526-11.549,15.927-11.549,26.472     c0,19.968,16.384,35.84,35.84,35.84c4.776,0,9.364-0.961,13.573-2.699l-42.407,106.019c-4.475,8.959-7.005,19.072-7.005,29.801     c0,36.864,30.208,66.56,66.56,66.56s66.56-29.696,66.56-66.56c0-9.924-2.169-19.32-6.034-27.766l-14.822-60.05     c1.753,0.492,3.591,0.776,5.496,0.776c11.264,0,20.48-9.216,20.48-20.48c0-8.541-5.304-15.894-12.776-18.955l107.496-90.101     c0.39-0.292,0.723-0.66,0.995-1.076C420.194,149.151,434.944,122.387,434.944,92.16z M23.808,92.16     c0-46.08,37.376-83.456,83.456-83.456c0.447,0,0.887,0.027,1.333,0.035c0.899,0.949,2.203,1.501,3.787,1.501h10.535     c38.166,7.484,67.289,41.701,67.289,81.92c0,42.176-31.588,77.31-72.826,82.31l-15.75-0.902     c-1.544-0.257-2.959,0.133-3.984,0.975C56.098,169.832,23.808,134.986,23.808,92.16z M199.424,240.64     c-14.336,0-26.112-11.776-26.112-26.112c0-12.309,8.684-22.723,20.214-25.424l5.898,0.336c1.008,0,2.013-0.321,2.864-0.862     c13.007,1.443,23.248,12.581,23.248,25.95c0,1.999-0.237,3.945-0.669,5.819c-0.829,0.592-1.505,1.41-1.891,2.373l-3.273,8.182     C214.901,236.827,207.579,240.64,199.424,240.64z M230.144,441.344c-31.744,0-57.344-25.6-57.344-57.344     c0-4.86,0.606-9.574,1.736-14.076c0.888-0.572,1.58-1.482,1.848-2.82l5.895-14.737c10.248-15.506,27.829-25.711,47.865-25.711     c21.555,0,40.666,12.196,50.443,30.187l1.269,5.141c0.296,1.481,1.285,2.606,2.457,3.302c2.045,5.863,3.175,12.154,3.175,18.714     C287.488,415.744,261.888,441.344,230.144,441.344z M281.344,265.216c6.656,0,11.264,5.12,11.264,11.264     c0,6.144-5.12,11.264-11.264,11.264c-3.316,0-6.325-1.499-8.401-3.838l-1.327-5.378c-0.194-0.969-0.756-1.791-1.517-2.411     c0.059-1.785,0.537-3.479,1.356-4.972c0.713-0.197,1.39-0.502,1.697-0.809l5.781-4.845     C279.712,265.315,280.518,265.216,281.344,265.216z M271.227,258.198c-6.172,3.538-10.363,10.182-10.363,17.77     c0,2.994,0.667,5.834,1.835,8.404l12.312,49.879c-11.818-10.769-27.551-17.323-44.867-17.323     c-14.42,0-27.731,4.559-38.609,12.298l38.339-95.847c3.404-5.459,5.39-11.906,5.39-18.851c0-19.968-15.872-35.84-35.84-35.84     c-1.415,0-2.806,0.088-4.175,0.243l-50.829-2.912c32.318-14.212,55.004-46.373,55.004-83.859c0-35.55-20.401-66.564-50.073-81.92     h151.136c-29.558,15.242-49.863,45.942-49.863,81.408c0,50.688,41.472,92.16,92.16,92.16c6.984,0,13.791-0.782,20.341-2.255     L271.227,258.198z M392.659,157.954c-1.014,0.101-2.001,0.508-2.771,1.278l-3.856,3.216     c-12.619,7.699-27.438,12.144-43.248,12.144c-45.568,0-82.432-36.352-82.432-82.432c0-41.611,30.064-75.698,69.45-81.92h7.862     c1.258,0,2.33-0.358,3.175-0.975c0.649-0.015,1.293-0.049,1.945-0.049c46.08,0,82.944,37.376,82.944,82.944     C425.728,119.056,412.701,142.913,392.659,157.954z" fill="#010002"/><path d="M419.072,90.624l-9.728-10.24l5.632-13.312c0.512-1.024,0-2.56-1.024-3.072l-12.8-6.144l1.024-13.824     c0.512-1.024-0.512-2.56-2.048-2.56l-13.824-1.536l-3.584-13.312c-0.512-1.024-1.536-2.048-3.072-1.536l-13.312,3.584     l-8.192-11.264c-1.024-1.024-2.56-1.024-3.584-0.512l-11.776,7.68l-11.264-7.68c-1.024-1.024-2.56-0.512-3.584,0.512     l-8.192,11.264l-13.312-3.584c-1.536-0.512-2.56,0-3.072,1.536l-3.584,13.312l-13.824,1.536c-1.024,0-2.048,1.024-2.048,2.56     l1.024,13.824L272.128,64c-1.024,0.512-1.536,2.048-1.024,3.072l5.632,12.8l-9.728,10.24c-1.024,1.024-1.024,2.56,0,3.584     l9.728,10.24l-5.632,12.8c-0.512,1.024,0,2.56,1.024,3.072l12.8,6.144l-1.024,13.824c-0.512,1.024,0.512,2.56,2.048,2.56     l13.824,1.536l3.584,13.312c0.512,1.024,1.536,2.048,3.072,1.536l13.312-3.072l8.192,11.264c0.512,0.512,1.024,1.024,2.048,1.024     c0.512,0,1.024-0.512,1.024-1.024l11.776-7.68l11.776,8.192c1.024,1.024,2.56,0.512,3.584-0.512l8.192-11.264l13.312,3.584     c1.536,0.512,2.56,0,3.072-1.536l3.584-13.312l13.824-1.536c1.024,0,2.048-1.024,2.048-2.56l-1.024-13.824l12.8-6.144     c1.024-0.512,1.536-2.048,1.024-3.072l-5.632-12.8l9.728-10.24C420.096,93.184,420.096,91.648,419.072,90.624z M404.736,101.888     c-0.512,0.512-1.024,1.536-0.512,2.56l5.632,11.264l-11.776,5.632c-1.024,0.512-1.536,1.536-1.536,2.56l1.024,13.312     l-13.312,1.536c-1.024,0.512-1.536,1.024-2.048,2.048l-3.584,12.8l-13.312-3.072c-1.024,0-2.048,0-2.56,1.024l-7.68,10.752     l-10.752-7.68c-0.512-0.512-1.024-0.512-1.536-0.512c-0.512,0-1.024,0-1.536,1.024l-10.752,7.68l-7.68-10.752     c-0.512-1.024-1.536-1.536-2.56-1.024l-12.8,3.072l-3.584-12.8c0-1.024-1.024-2.048-2.048-2.048l-13.312-1.536l1.024-13.312     c0-1.024-0.512-2.048-1.536-2.56l-11.776-5.632l5.632-12.288c0.512-0.512,0-2.048-0.512-2.56l-9.216-9.216l9.216-9.728     c0.512-0.512,1.024-1.536,0.512-2.56l-5.632-12.288L288,62.976c1.024-0.512,1.536-1.536,1.536-2.56l-1.024-13.312l13.312-1.536     c1.024-0.512,1.536-1.024,2.048-2.048l3.584-12.8l13.824,3.072c1.024,0,2.048,0,2.56-1.024l7.68-10.752l10.752,7.68     c0.512,0.512,1.536,0.512,2.56,0l10.752-7.68l7.68,10.752c0.512,1.024,1.536,1.536,2.56,1.024l12.8-3.072l3.584,11.776     c0,1.024,1.024,2.048,2.048,2.048l13.312,1.536l-1.024,13.312c0,1.024,0.512,2.048,1.536,2.56l11.776,5.632l-5.632,12.288     c-0.512,1.024,0,2.048,0.512,3.584l9.216,9.216L404.736,101.888z" fill="#010002"/><path d="M107.264,159.232l10.752,7.68c1.024,1.024,2.56,0.512,3.584-0.512l8.192-11.264l13.312,3.584     c1.536,0.512,2.56,0,3.072-1.536l3.584-13.312l13.824-1.536c1.024,0,2.048-1.024,2.048-2.56l-1.024-13.824l12.8-6.144     c1.024-0.512,1.536-2.048,1.024-3.072l-5.632-12.8l9.728-10.24c1.024-1.024,1.024-2.56,0-3.584l-9.728-10.24l5.632-12.8     c0.512-1.024,0-2.56-1.024-3.072l-12.8-6.144l1.024-13.824c0.512-1.024-0.512-2.56-2.048-2.56l-13.824-1.536l-3.584-13.312     c-0.512-1.024-1.536-2.048-3.072-1.536l-13.312,3.584L121.6,17.408c-1.024-1.024-2.56-1.024-3.584-0.512l-11.264,7.68     l-11.264-7.68c-1.024-1.024-2.56-0.512-3.584,0.512l-8.192,11.264L70.4,25.088c-1.536-0.512-2.56,0-3.072,1.536l-3.584,13.312     L49.92,41.472c-1.024,0-2.048,1.024-2.048,2.56l1.024,13.824L36.096,64c-1.024,0.512-1.536,2.048-1.024,3.072l5.632,12.8     l-9.728,10.24c-1.024,1.024-1.024,2.56,0,3.584l9.728,10.24l-5.632,12.8c-0.512,1.024,0,2.56,1.024,3.072l12.8,6.144     l-1.024,13.824c-0.512,1.024,0.512,2.56,2.048,2.56l13.824,1.536l3.584,13.312c0.512,1.024,1.536,2.048,3.072,1.536l13.312-3.072     l8.192,11.264c0.512,0.512,1.024,1.024,2.048,1.024c0.512,0,1.024-0.512,1.536-1.024L107.264,159.232z M86.784,151.552     c-0.512-1.024-1.536-1.536-2.56-1.024l-12.8,3.072l-3.584-12.288c0-1.024-1.024-2.048-2.048-2.048l-13.312-1.536l1.024-13.312     c0-1.024-0.512-2.048-1.536-2.56l-11.776-5.632l5.632-12.288c0.512-0.512,0-2.048-0.512-2.56l-9.216-9.216l9.216-8.704     c0.512-0.512,1.024-1.536,0.512-2.56l-5.632-12.288l11.776-5.632c1.024-0.512,1.536-1.536,1.536-2.56L52.48,47.104l13.312-1.536     c1.024-0.512,1.536-1.024,2.048-2.048l3.584-12.8l12.8,3.072c1.024,0,2.048,0,2.56-1.024l8.704-10.752l10.752,7.68     c0.512,0.512,1.536,0.512,2.56,0l10.752-7.68l7.68,10.752c0.512,1.024,1.536,1.536,2.56,1.024l12.8-3.072l3.584,12.288     c0,1.024,1.024,2.048,2.048,2.048l13.312,1.024l-1.024,13.312c0,1.024,0.512,2.048,1.536,2.56l11.776,5.632l-5.632,12.288     c-0.512,0.512,0,2.048,0.512,2.56l9.216,9.216l-9.216,9.216c-0.512,0.512-1.024,1.536-0.512,2.56l5.632,12.288l-11.776,5.632     c-1.024,0.512-1.536,1.536-1.536,2.56l1.024,13.312l-13.312,1.536c-1.024,0.512-1.536,1.024-2.048,2.048l-3.584,12.8l-12.8-3.072     c-1.024,0-2.048,0-2.56,1.024l-7.68,10.752l-10.752-7.68c-0.512-0.512-1.024-0.512-1.536-0.512c-0.512,0-1.024,0-2.048,0.512     l-10.752,7.68L86.784,151.552z" fill="#010002"/><path d="M199.424,204.288c-5.632,0-10.24,4.608-10.24,10.24c0,5.632,4.608,10.24,10.24,10.24c5.12,0,10.24-4.608,10.24-10.24     C209.664,208.896,205.056,204.288,199.424,204.288z M199.424,222.208c-4.096,0-7.168-3.072-7.168-7.168s3.072-7.168,7.168-7.168     c3.584,0,7.168,3.072,7.168,7.168S203.52,222.208,199.424,222.208z" fill="#010002"/><path d="M230.144,370.688c-7.168,0-12.8,5.632-12.8,12.8s5.632,12.8,12.8,12.8c6.656,0,12.8-5.632,12.8-12.8     S237.312,370.688,230.144,370.688z M230.144,391.68c-4.096,0-7.68-3.584-7.68-7.68c0-4.096,3.584-7.68,7.68-7.68     s7.68,3.584,7.68,7.68C237.824,388.096,234.24,391.68,230.144,391.68z" fill="#010002"/><path d="M270.592,374.272l5.12-10.752c0.512-0.512,0.512-1.536,0-2.048c0-1.024-1.024-1.536-1.536-1.536l-11.776-2.56V345.6     c0-1.024-0.512-1.536-1.024-2.048c-0.512-0.512-1.536-0.512-2.048-0.512l-11.776,2.56l-5.12-10.752     c0-1.024-1.024-1.536-1.536-1.536c-0.512,0-1.536,0-2.048,0.512l-9.216,7.168l-9.216-7.168c-0.512-0.512-1.536-0.512-2.048-0.512     c-0.512,0.512-1.024,1.024-1.536,1.536l-5.12,10.752l-11.776-2.56c-0.512,0-1.536,0-2.048,0     c-0.512,0.512-1.024,1.536-1.024,2.048v11.776l-11.776,2.56c-0.512,0.512-1.024,1.024-1.536,1.536     c-0.512,0.512-0.512,1.536,0,2.048l5.12,10.752l-9.216,7.68c-0.512,0.512-1.024,1.024-1.024,2.048     c0,1.024,0.512,1.536,1.024,2.048l9.216,7.68l-5.12,10.752c-0.512,0.512-0.512,1.536,0,2.048c0,1.024,1.024,1.536,1.536,1.536     l11.776,2.56v11.776c0,1.024,0.512,1.536,1.024,2.048c0.512,0.512,1.536,0.512,2.048,0.512l11.776-2.56l5.12,10.752     c0,1.024,1.024,1.536,1.536,1.536h0.512c0.512,0,1.024-0.512,2.048-1.024l9.216-7.168l9.216,7.68     c0.512,0.512,1.536,0.512,2.048,0.512c0.512-0.512,1.024-1.024,1.536-1.536l5.12-10.752l11.776,2.56c0.512,0,1.536,0,2.048-0.512     c0.512-0.512,1.024-1.536,1.024-2.048v-11.776l11.776-2.56c0.512-0.512,1.024-1.024,1.536-1.536c0.512-0.512,0.512-1.536,0-2.048     l-5.12-10.752l8.704-7.168c0.512-0.512,1.024-1.024,1.024-2.048s-0.512-1.536-1.024-2.048L270.592,374.272z M266.496,390.656     c-0.512,1.024-1.024,2.048-0.512,3.072l4.608,9.728l-10.752,2.56c-1.024,0.512-2.048,1.536-2.048,2.56v10.752l-10.752-2.56     c-1.024,0-2.048,0.512-2.56,1.536l-4.608,9.728l-8.704-6.656c-1.024-0.512-2.048-0.512-3.072,0l-8.704,6.656l-4.608-9.728     c-0.512-1.024-1.024-1.536-2.048-1.536l-10.752,2.56v-10.752c0-1.536-1.024-2.048-2.048-2.56l-10.752-2.56l4.608-9.728     c0.512-1.024,0.512-2.56-0.512-3.072L185.088,384l8.192-7.168c0.512-1.024,1.024-2.048,0.512-3.072l-4.608-9.728l10.752-2.048     c1.024-0.512,2.048-1.536,2.048-2.56v-10.752l10.752,2.56c1.024,0,2.048-0.512,2.56-1.536l4.608-9.728l8.192,6.656     c1.024,0.512,2.048,0.512,3.072,0l8.704-6.656l4.608,9.728c0.512,1.024,1.536,1.536,2.56,1.536l10.752-2.56v10.752     c0,1.536,1.024,2.048,2.048,2.56l10.752,2.56l-4.608,9.728c-0.512,1.024-0.512,2.56,0.512,3.072l8.192,6.656L266.496,390.656z" fill="#010002"/><circle cx="132" cy="117" r="5" fill="#010002"/><circle cx="81" cy="117" r="5" fill="#010002"/><circle cx="132" cy="66" r="5" fill="#010002"/><circle cx="81" cy="66" r="5" fill="#010002"/><circle cx="368" cy="117" r="5" fill="#010002"/><circle cx="317" cy="117" r="5" fill="#010002"/><circle cx="368" cy="66" r="5" fill="#010002"/><circle cx="317" cy="66" r="5" fill="#010002"/></g><path d="M340.48,25.6h-5.12V15.36c0-3.072-2.048-5.12-5.12-5.12c-3.072,0-5.12,2.048-5.12,5.12V25.6H243.2V5.12    c0-3.072-2.048-5.12-5.12-5.12s-5.12,2.048-5.12,5.12V25.6h-87.04V15.36c0-3.072-2.048-5.12-5.12-5.12    c-3.072,0-5.12,2.048-5.12,5.12V25.6h-5.12c-5.632,0-10.24,4.608-10.24,10.24v10.24c0,5.632,4.608,10.24,10.24,10.24h46.08v15.36    c0,3.072,2.048,5.12,5.12,5.12h35.84v17.088l-52.736,14.144c-8.192,2.56-12.8,10.752-10.752,18.944    c2.048,6.656,7.68,11.264,14.848,11.264c1.024,0,2.56,0,4.096-0.512l2.42-0.649l35.98,4.233c1.024,0,2.048-0.512,3.072-2.048    c0.512-1.536-0.512-3.072-2.048-3.072l-23.422-2.756l28.542-7.655v19.307l-52.736,14.144c-8.192,2.56-12.8,10.752-10.752,18.944    c2.048,6.656,7.68,11.264,14.848,11.264c1.024,0,2.56,0,4.096-0.512l2.42-0.649l35.98,4.233c1.024,0,2.048-0.512,3.072-2.048    c0.512-1.536-0.512-3.072-2.048-3.072l-23.422-2.756l28.542-7.655v19.307l-52.736,14.144c-8.192,2.56-12.8,10.752-10.752,18.944    c2.048,6.656,7.68,11.264,14.848,11.264c1.024,0,2.56,0,4.096-0.512l24.064-6.454v16.747l-32.256,8.651    c-8.192,2.56-12.8,10.752-10.752,18.944c1.129,3.668,3.35,6.708,6.313,8.704h-4.265c-5.632,0-10.24,4.608-10.24,10.24v10.24    c0,5.632,4.608,10.24,10.24,10.24h30.72v70.656c0,6.144,4.096,12.288,10.24,14.336l2.048,1.024    c1.585,0.551,3.181,1.059,4.784,1.536h-0.176l13.476,29.276c-2.979,3.822-4.772,8.596-4.772,13.732    c0,12.8,10.24,23.04,23.04,23.04c12.288,0,22.528-10.24,22.016-23.04c0-4.186-1.19-8.133-3.243-11.52l13.995-31.488h-1.862    c1.637-0.477,3.28-0.985,4.935-1.536l3.072-1.024c6.144-2.048,10.24-7.68,10.24-14.336V317.44h30.208    c5.632,0,10.24-4.608,10.24-10.24v-10.24c0-5.632-4.608-10.24-10.24-10.24h-40.96v-25.004l32.768-8.788    c8.192-2.56,12.8-10.752,10.752-18.944c-2.048-6.656-7.68-11.264-14.848-11.264c-1.536,0-2.56,0-4.096,0.512l-24.576,6.591    v-16.747l32.768-8.788c8.192-2.56,12.8-10.752,10.752-18.944c-2.048-6.656-7.68-11.264-14.848-11.264    c-1.536,0-3.072,0-4.096,0.512l-7.634,2.047l-29.742-3.583c-1.536-0.512-3.072,0.512-3.072,2.048    c-0.512,1.536,0.512,3.072,2.048,3.072l17.34,2.064l-23.996,6.436v-19.252h-0.205l53.453-14.336    c8.192-2.56,12.8-10.752,10.752-18.944c-2.048-6.656-7.68-11.264-14.848-11.264c-1.536,0-3.072,0-4.096,0.512l-7.634,2.047    l-29.742-3.583c-1.536-0.512-3.072,0.512-3.072,2.048c-0.512,1.536,0.512,3.072,2.048,3.072l17.34,2.064l-23.996,6.436v-19.307    l53.248-14.281c8.192-2.56,12.8-10.752,10.752-18.944c-2.048-6.656-7.68-11.264-14.848-11.264c-1.536,0-3.072,0-4.096,0.512    l-4.349,1.166c0.152-0.519,0.253-1.072,0.253-1.678V56.32h46.08c5.632,0,10.24-4.608,10.24-10.24V35.84    C350.72,30.208,346.112,25.6,340.48,25.6z M235.52,461.824c-7.68,0-13.824-6.144-13.824-13.824s6.144-13.824,13.824-13.824    s13.824,6.144,13.824,13.824S243.2,461.824,235.52,461.824z M255.488,408.064l-9.359,20.42c-3.297-1.908-7.097-3.012-11.121-3.012    c-3.426,0-6.692,0.798-9.623,2.213l-8.809-19.621h0.576c6.08,1.024,12.224,1.536,18.368,1.536c5.888,0,11.776-0.512,17.728-1.536    H255.488z M227.84,76.8h15.36v10.222l-15.36,4.12V76.8z M180.692,286.72l16.428-4.406v4.406H180.692z M270.848,392.704    l-3.072,1.024c-20.992,7.168-44.032,7.168-65.024-0.512l-2.048-0.512c-2.048-0.512-3.584-2.56-3.584-4.608v-22.985    c0.334,0.163,0.675,0.317,1.024,0.457l2.048,0.512c11.264,4.096,23.04,6.144,35.328,6.144c11.264,0,23.04-2.048,34.304-5.632    l3.072-1.024c0.531-0.212,1.041-0.458,1.536-0.724v23.252C274.432,390.144,272.896,392.192,270.848,392.704z M274.432,358.415    c-0.828,0.908-1.867,1.631-3.072,2.033l-3.072,1.024c-21.504,7.168-45.056,7.168-66.56-0.512l-2.048-0.512    c-0.972-0.324-1.826-0.869-2.56-1.538v-41.47h77.312V358.415z M314.88,307.2H156.16v-10.24h158.72V307.2z M263.68,286.72h-56.32    v-7.152l56.32-15.105V286.72z M301.056,232.96c0.512,0,1.024,0,1.536,0c2.048,0,4.096,1.536,4.608,3.584    c0.512,2.56-1.024,5.632-3.584,6.144l-133.632,35.84c-2.56,1.024-5.632-1.024-6.144-3.584c-0.512-2.56,1.024-5.632,3.584-6.144    L301.056,232.96z M263.68,232.57l-56.32,15.105v-16.747l56.32-15.105V232.57z M307.2,187.904c0.512,2.56-1.024,5.632-3.584,6.144    l-133.632,35.84c-2.56,1.024-5.632-1.024-6.144-3.584c-0.512-2.56,1.024-5.632,3.584-6.144l133.632-35.84c0.512,0,1.024,0,1.536,0    C304.64,184.32,306.688,185.856,307.2,187.904z M243.2,189.422l-15.36,4.12v-19.307l15.36-4.12V189.422z M307.2,136.704    c0.512,2.56-1.024,5.632-3.584,6.144l-133.632,35.84c-2.56,0.512-5.632-1.024-6.144-3.584c-0.512-2.56,1.024-5.632,3.584-6.144    l133.632-35.84c0.512,0,1.024,0,1.536,0C304.64,133.12,306.688,134.656,307.2,136.704z M243.2,138.222l-15.36,4.12v-19.307    l15.36-4.12V138.222z M301.056,81.92c0.512,0,1.024,0,1.536,0c2.048,0,4.096,1.536,4.608,3.584    c0.512,2.56-1.024,5.632-3.584,6.144l-133.632,35.84c-2.56,1.024-5.632-1.024-6.144-3.584c-0.512-2.56,1.024-5.632,3.584-6.144    L301.056,81.92z M253.44,84.276V76.8h27.875L253.44,84.276z M284.16,66.56h-97.28V56.32h97.28V66.56z M340.48,46.08h-51.2H181.76    h-51.2V35.84h209.92V46.08z" transform="matrix(0.1273777186870575 0 0 0.1273777186870575 26 288)" id="L1_5" fill="#000000"/><g transform="matrix(0.14118975400924683 0 0 0.14118975400924683 34 136)" id="L1_6"><path d="M316.416,327.68c-1.024-1.024-2.56-0.512-3.584,0.512c-3.072,4.608-6.144,8.704-9.216,12.8     c-0.512,1.024-0.512,2.56,0.512,3.584c0.512,0.512,1.024,0.512,1.536,0.512c0.512,0,1.536-0.512,2.048-1.024     c3.072-4.096,6.144-8.192,9.216-12.8C317.952,330.24,317.44,328.192,316.416,327.68z"/><path d="M313.344,297.472c0.512,0,0.512,0,1.024,0c1.024,0,2.048-0.512,2.048-1.024c4.096-10.24,6.656-20.992,8.192-31.744     c0.512-1.536-0.512-3.072-2.048-3.072c-1.536-0.512-3.072,0.512-3.072,2.048c-1.536,10.752-4.096,20.992-7.68,30.72     C311.296,295.424,311.808,296.96,313.344,297.472z"/><path d="M183.808,145.408c-53.76,0-97.28,44.032-97.28,98.304s43.52,98.304,97.28,98.304s97.28-44.032,97.28-98.304     S237.568,145.408,183.808,145.408z M183.808,331.264c-48.128,0-87.04-39.424-87.04-88.064s38.912-88.064,87.04-88.064     s87.04,39.424,87.04,88.064S231.936,331.264,183.808,331.264z"/><path d="M183.808,221.184c-12.288,0-22.528,10.24-22.528,22.528c0,12.288,10.24,22.528,22.528,22.528s22.528-10.24,22.528-22.528     C206.336,231.424,196.096,221.184,183.808,221.184z M183.808,256.512c-7.168,0-12.8-6.144-12.8-13.312s5.632-13.312,12.8-13.312     s12.8,6.144,12.8,13.312S190.976,256.512,183.808,256.512z"/><path d="M223.232,262.656c-3.584-2.56-8.192-1.536-10.752,2.048c-2.56,3.584-2.048,8.192,1.536,10.752     c1.536,1.024,3.072,1.536,4.608,1.536c2.56,0,4.608-1.024,6.144-3.072l0.512-0.512     C227.328,269.824,226.816,265.216,223.232,262.656z"/><path d="M171.008,209.408c0.512,0,1.536-0.512,2.56,0c4.096-1.536,6.144-5.632,5.12-9.728c-1.536-4.096-5.632-6.144-9.728-5.12     h-0.512c-4.096,1.536-6.144,5.632-4.608,9.728C164.864,207.36,167.936,209.408,171.008,209.408z"/><path d="M172.544,277.504h-0.512c-4.096-1.024-8.192,1.024-9.728,5.12c-1.024,4.096,1.024,8.192,5.12,9.728h0.512     c1.024,0.512,1.536,0.512,2.56,0.512c3.584,0,6.144-2.048,6.656-5.632C178.688,283.136,176.64,279.04,172.544,277.504z"/><path d="M225.28,212.992c-2.56-3.584-7.168-4.096-10.752-1.536c-3.072,2.56-4.096,7.168-1.536,10.752     c1.024,2.56,3.584,3.584,6.144,3.584c1.536,0,3.072-0.512,4.608-1.536c3.584-2.56,4.608-7.168,2.048-10.752L225.28,212.992z"/><path d="M140.8,235.008c-4.096,0-7.68,3.584-7.68,7.68v1.024c0,4.096,3.584,7.68,7.68,7.68s7.68-3.584,7.68-8.192v-0.512     C148.48,238.592,144.896,235.008,140.8,235.008z"/><path d="M183.808,171.008c-39.424,0-71.168,32.256-71.168,72.704c0,39.936,31.744,72.704,71.168,72.704     s71.168-32.256,71.168-72.704C255.488,203.264,223.232,171.008,183.808,171.008z M183.808,311.296     c-36.352,0-66.048-30.208-66.048-67.584c0-37.376,29.696-67.584,66.048-67.584s66.048,30.208,66.048,67.584     S220.16,311.296,183.808,311.296z"/><path d="M173.568,375.296c-2.56-1.024-5.632-0.512-7.168,2.048v0.512c-1.024,2.56-0.512,5.632,2.048,7.168     c1.024,0.512,1.536,0.512,2.56,0.512c2.048,0,3.584-1.024,4.608-2.56v-0.512C176.64,379.904,176.128,376.832,173.568,375.296z"/><path d="M165.888,389.12c-2.56-1.024-5.632-0.512-7.168,2.048v0.512c-1.024,2.56-0.512,5.632,2.048,7.168     c1.024,0.512,1.536,0.512,2.56,0.512c1.536,0,3.584-1.024,4.608-2.56v-0.512C168.96,393.728,168.448,390.656,165.888,389.12z"/><path d="M181.76,361.984c-2.56-1.024-5.632-0.512-7.168,2.048v0.512c-1.536,2.56-0.512,5.12,2.048,6.656     c1.024,0.512,1.536,0.512,2.56,0.512c1.536,0,3.584-1.024,4.608-2.56C184.832,366.592,184.32,363.52,181.76,361.984z"/><path d="M61.44,330.752h-0.512c-2.56,0.512-4.096,3.584-3.584,6.144c1.024,2.048,3.072,3.584,5.12,3.584c0.512,0,1.024,0,1.024,0     H64c2.56-0.512,4.096-3.584,3.584-6.144S64,330.24,61.44,330.752z"/><path d="M77.312,326.656H76.8c-3.072,0.512-4.096,3.584-3.584,6.144c0.512,2.048,3.072,3.584,5.12,3.584c0.512,0,1.024,0,1.536,0     c2.56-0.512,4.096-3.584,3.584-6.144S79.872,325.632,77.312,326.656z"/><path d="M92.16,322.56h-0.512c-2.56,0.512-4.096,3.584-3.584,6.144c1.024,2.048,3.072,3.584,5.12,3.584c0.512,0,1.024,0,1.024,0     h0.512c2.56-0.512,4.096-3.584,3.584-6.144C97.792,323.584,94.72,322.048,92.16,322.56z"/><path d="M60.928,243.712c1.536,0,3.584-1.024,4.608-2.56c1.024-2.56,0.512-5.632-2.048-7.168h-0.512     c-2.56-1.536-5.12-0.512-6.656,2.048c-1.536,2.56-0.512,5.632,2.048,7.168C59.392,243.712,59.904,243.712,60.928,243.712z"/><path d="M35.84,218.112h-0.512c-2.56-1.024-5.632-0.512-7.168,2.048c-1.024,2.56-0.512,5.632,2.048,7.168h0.512     c1.024,0.512,1.536,0.512,2.56,0.512c1.536,0,3.584-0.512,4.608-2.56C38.912,222.72,38.4,219.648,35.84,218.112z"/><path d="M49.664,226.304h-0.512c-2.56-1.536-5.12-0.512-6.656,2.048s-0.512,5.632,2.048,7.168     c1.024,0.512,1.536,0.512,2.56,0.512c1.536,0,3.584-1.024,4.608-2.56C52.736,230.912,52.224,227.84,49.664,226.304z"/><path d="M270.848,345.6c2.56-0.512,4.096-3.584,3.584-6.144v-0.512c-0.512-2.56-3.584-4.096-6.144-3.584     c-2.56,0.512-4.096,3.584-3.584,6.144v0.512c1.024,2.048,3.072,3.584,5.12,3.584C269.824,345.6,270.336,345.6,270.848,345.6z"/><path d="M278.528,354.304c-0.512-2.56-3.584-4.096-6.144-3.584c-2.56,0.512-4.096,3.584-3.584,6.144v0.512     c1.024,2.048,3.072,3.584,5.12,3.584c0.512,0,0.512,0,1.024,0c2.56-0.512,4.096-3.584,3.584-6.144V354.304z"/><path d="M266.24,330.24c2.56-0.512,4.096-3.584,3.584-6.144v-0.512c-0.512-2.56-3.584-4.096-6.144-3.584     c-2.56,0.512-4.096,3.584-3.584,6.144v0.512c1.024,2.048,3.072,3.584,5.12,3.584C265.728,330.24,266.24,330.24,266.24,330.24z"/><path d="M94.208,132.608c-2.56,0.512-4.096,3.584-3.584,6.144v0.512c1.024,2.048,3.072,3.584,5.12,3.584c0.512,0,1.024,0,1.024,0     c2.56-0.512,4.096-3.584,3.584-6.144v-0.512C99.84,133.632,96.768,132.096,94.208,132.608z"/><path d="M86.528,123.904c1.024,2.048,3.072,3.584,5.12,3.584c0.512,0,1.024,0,1.024,0c2.56-0.512,4.096-3.584,3.584-6.144v-0.512     c-0.512-2.56-3.584-4.096-6.144-3.584c-2.56,0.512-4.096,3.584-3.584,6.144V123.904z"/><path d="M98.304,147.968c-2.56,0.512-4.096,3.584-3.584,6.144v0.512c1.024,2.048,3.072,3.584,5.12,3.584c0.512,0,1.024,0,1.024,0     c2.56-0.512,4.096-3.584,3.584-6.144v-0.512C103.936,148.992,100.864,147.456,98.304,147.968z"/><path d="M356.352,218.624c-0.512-1.024-1.536-2.048-3.072-1.536c-1.024,0.512-2.048,1.536-1.536,3.072     c0.512,1.536,0.512,2.56,1.024,3.584c0.512,1.536,1.536,2.048,2.56,2.048c0.512,0,0.512,0,0-0.512     c1.536-0.512,2.56-1.536,2.048-3.072C356.864,221.184,356.864,219.648,356.352,218.624z"/><path d="M352.256,214.016c1.024-0.512,2.048-1.536,1.536-3.072c-1.024-3.072-2.048-5.632-3.072-8.704     c-0.512-1.536-1.536-2.048-3.072-1.536c-1.536,0.512-2.048,1.536-1.536,3.072c1.024,2.56,2.048,5.12,3.072,8.192     c0.512,1.024,1.536,1.536,2.56,1.536C352.256,213.504,352.256,213.504,352.256,214.016z"/><path d="M207.872,65.536c-3.072-1.024-6.656-2.048-10.24-3.072c-1.536,0-3.072,0.512-3.072,2.048s0.512,2.56,2.048,3.072     c3.584,1.024,7.168,2.048,10.24,3.072h0.512c1.024,0,2.048-0.512,2.048-2.048C209.92,67.584,209.408,66.048,207.872,65.536z"/><path d="M415.232,243.2H403l-1.08-14.848c-0.705-13.387-5.046-26.289-12.188-37.539l-2.147-14.173     c-2.048-14.336-8.192-27.648-17.408-38.912l-20.992-25.088c-0.086-0.114-0.18-0.222-0.278-0.327l2.326-4.281     c3.072-6.144,2.048-13.824-2.56-18.432l-17.92-17.92c-5.12-4.608-12.288-5.632-18.432-2.56l-3.852,2.092l-24.82-20.524     c-11.264-9.216-24.576-15.36-38.912-17.92l-16.896-2.56c-0.16-0.027-0.317-0.042-0.474-0.055     c-10.599-6.064-22.518-9.723-34.854-10.697l-13.824-1.005V5.12c0-3.072-2.048-5.12-5.12-5.12c-3.072,0-5.12,2.048-5.12,5.12     v12.586l-32.256-2.346c-0.512,0-1.024,0-1.024,0c-3.584,0-6.656,2.048-8.704,5.12c-1.536,3.072-1.536,7.168,0,10.24     l19.266,34.878C63.503,83.555,4.608,157.484,4.608,243.2c0,100.352,80.384,181.76,179.2,181.76     c87.196,0,160.158-61.806,175.7-147.483l30.636,16.923c1.536,1.024,3.584,1.536,5.12,1.536c3.072,0,5.632-1.536,8.192-3.584     c2.048-2.048,2.56-4.608,2.56-7.68l-2.271-31.232h12c2.56,0,4.608-2.048,4.608-5.12C420.352,245.248,418.304,243.2,415.232,243.2     z M391.68,229.888l0.968,13.312h-11.734l9.652-21.008C391.063,224.737,391.445,227.305,391.68,229.888z M362.496,144.384     c7.631,9.062,12.594,19.902,14.893,31.277l-6.189-6.189c-2.048-2.56-5.632-3.584-8.704-3.072l-18.944,3.072l-1.024-1.536     c-3.792-7.195-7.974-14.149-12.52-20.832l13.685-25.192L362.496,144.384z M316.928,77.824c2.048-1.024,4.608-0.512,6.144,1.024     l17.92,17.92c1.536,1.536,2.048,4.096,1.024,6.144l-18.849,34.7c-11.632-15.238-25.283-28.85-40.658-40.427L316.928,77.824z      M276.48,58.368l22.057,18.239l-25.499,13.851c-6.284-4.202-12.818-8.085-19.597-11.611l-1.536-0.512l2.56-19.456     c0.512-3.072-1.024-6.656-3.072-8.704l-6.825-6.824C256.174,45.593,267.249,50.595,276.48,58.368z M192,29.696     c2.089,0.19,4.163,0.467,6.216,0.829l-19.528,8.592v-10.38L192,29.696z M168.556,43.135c-2.861,0.304-5.686-0.929-7.276-3.711     l-7.022-12.448l14.19,1.023v13.985C168.448,42.387,168.487,42.77,168.556,43.135z M183.808,414.72     c-92.672,0-168.448-76.8-168.96-171.52c0-82.223,57.361-152.36,136.165-168.038l5.147,9.318c1.536,2.56,3.072,4.608,5.12,6.656     l19.456,19.456c7.168,7.68,15.872,13.312,25.6,17.408l15.36,6.656c29.184,12.288,52.224,35.328,64.512,64.512l6.656,15.36     c4.096,9.728,10.24,18.432,17.408,25.6l19.456,19.456c1.946,1.946,3.905,3.428,6.29,4.888c-0.085,0.231-0.146,0.476-0.146,0.744     c-2.048,16.384-6.656,32.768-14.336,47.616c-0.512,1.536,0,3.072,1.024,3.584c0,0.512,0.512,0.512,1.024,0.512     c0.512,0,1.536-0.512,2.56-1.536c7.541-15.082,12.606-31.153,14.726-48.21l9.493,5.244     C336.221,354.805,266.564,414.72,183.808,414.72z M342.016,256.512c-1.536-1.024-3.072-2.048-4.608-3.584l-19.456-19.456     c-6.656-6.656-11.776-14.336-15.36-22.528l-6.656-15.36c-13.824-31.744-38.4-56.832-70.144-70.144l-15.36-6.656     c-8.704-3.584-15.872-8.704-22.528-15.36l-19.456-19.456c-1.536-1.536-2.56-3.072-3.584-4.608L135.168,25.6l12.781,0.921     l8.723,15.463c2.56,4.096,6.656,6.656,11.264,6.656c2.048,0,3.584,0,5.632-1.024l33.194-15.048     c11.272,3.403,21.668,9.494,30.294,18.12l7.168,7.168l-2.81,21.077c-5.086-2.461-10.239-4.722-15.622-6.741     c-1.024-0.512-2.56,0-3.072,1.536c-0.512,1.024,0,2.56,1.536,3.072c6.059,2.272,11.835,4.547,17.334,7.233     c0.458,0.811,1.174,1.509,2.122,1.983l4.608,2.56c36.352,19.456,65.536,48.64,84.992,84.992l0.828,1.655     c0.001,0.325,0.061,0.633,0.196,0.905c3.072,5.632,5.632,11.264,8.192,17.408c0.512,1.024,1.536,1.536,2.56,1.536     c0.188,0,0.375,0,0.512,0c1.536-1.024,2.048-2.048,1.536-3.584c-1.473-3.536-2.959-7.059-4.529-10.497l20.913-3.327l7.168,7.168     c8.381,8.032,14.375,18.209,17.83,29.229l-14.265,31.047c-0.383,0.513-0.662,1.115-0.824,1.794l-0.181,0.394     c-3.072,6.144-0.512,13.312,5.12,16.384l16.427,9.035l0.981,13.493L342.016,256.512z M394.392,267.179l-13.464-7.595     c-2.454-1.402-3.706-3.765-3.76-6.265c0.381,0.075,0.778,0.121,1.2,0.121h15.025L394.392,267.179z"/></g><g transform="matrix(0.15419407188892365 0 0 0.15419407188892365 51 29)" id="L1_7"><path d="M194.56,0C87.04,0,0,87.04,0,194.56s87.552,194.56,194.56,194.56c107.52,0,194.56-87.04,194.56-194.56     S301.568,0,194.56,0z M377.449,218.144l-33.385-10.272c-1.024-0.512-2.56,0-3.072,1.536c-0.512,1.024,0,2.56,1.536,3.072     l34.251,10.539c-4.666,30.75-16.917,58.988-34.784,82.758l-42.681-46.165c10.04-16.326,16.373-35.145,17.809-55.264l11.582,3.525     h0.512c1.024,0,2.048-0.512,2.56-1.536c0.512-1.024,0-2.56-1.536-3.072l-11.776-3.584c-0.329-0.164-0.711-0.211-1.094-0.165     c0.042-1.306,0.07-2.615,0.07-3.931c0-19.273-4.502-37.542-12.498-53.819l61.453-13.556c8.058,20.724,12.485,43.27,12.485,66.863     C378.88,202.887,378.39,210.586,377.449,218.144z M194.56,308.224c-61.952,0-112.64-50.688-112.64-112.64     s50.176-112.64,112.64-112.64c61.952,0,112.64,50.688,112.64,112.64S256.512,308.224,194.56,308.224z M215.973,11.994     L203.776,51.2c-0.512,1.024,0,2.56,1.536,3.072h0.512c1.024,0,2.048-0.512,2.56-1.536l12.479-40.112     c31.247,4.455,59.958,16.717,84.084,34.77L289.792,61.44c-1.024,1.024-1.024,2.56,0,3.584c0.512,0.512,1.536,1.024,2.048,1.024     c0.512,0,1.024-0.512,1.536-1.024l15.635-14.491c24.08,19.085,43.274,44.06,55.402,72.768l-61.956,13.667     c-9.576-17.503-23.289-32.454-39.798-43.52l10.237-9.479c1.024-1.024,1.024-2.56,0-3.584c-1.024-1.024-2.56-1.024-3.584,0     l-11.058,10.238c-16.656-10.171-35.891-16.485-56.439-17.697l1.449-4.83c0.512-1.024,0-2.56-1.536-3.072     c-1.024-0.512-2.56,0-3.072,1.536l-1.852,6.173c-0.747-0.014-1.494-0.029-2.244-0.029c-20.089,0-39.093,4.887-55.881,13.529     l-13.823-61.771c21.531-8.831,45.07-13.71,69.704-13.71C201.805,10.752,208.948,11.183,215.973,11.994z M119.973,26.545     l13.937,62.282c-17.482,9.999-32.307,24.165-43.097,41.122l-7.357-8.093c-1.024-1.024-2.56-1.024-3.584,0s-1.024,2.56,0,3.584     l8.199,9.019c-9.747,16.868-15.594,36.235-16.308,56.848L11.6,172.696C19.555,107.179,61.975,52.317,119.973,26.545z      M26.869,271.518l19.723-4.254c1.536-0.512,2.56-1.536,2.048-3.072c-0.512-1.536-1.536-2.56-3.072-2.048l-20.855,4.498     c-9.321-22.033-14.473-46.225-14.473-71.57c0-5.889,0.289-11.71,0.831-17.457l60.619,18.753     c0.128,20.4,5.247,39.659,14.212,56.595l-24.974,5.598c-1.536,0.512-2.56,1.536-2.048,3.072c0.512,1.024,1.536,2.048,2.56,2.048     h0.512l26.603-5.963c9.863,16.789,23.597,31.05,40.002,41.525l-45.795,42.272C58.839,323.2,39.529,299.177,26.869,271.518z      M194.56,379.392c-6.479,0-12.879-0.339-19.184-0.993l10.48-33.823c0.512-1.024,0-2.56-1.536-3.072     c-1.024-0.512-2.56,0-3.072,1.536l-10.777,34.78c-30.817-4.036-59.227-15.705-83.297-33.024l45.895-42.806     c18.063,10.468,39.054,16.474,61.491,16.474c19.85,0,38.637-4.775,55.278-13.226l3.602,16.81c0.512,1.024,1.536,2.048,2.56,2.048     h0.512c1.536-0.512,2.56-1.536,2.048-3.072l-3.933-18.355c16.764-9.468,31.12-22.752,41.855-38.659l42.367,45.825     C305.095,352.233,253.036,379.392,194.56,379.392z" fill="#000000"/><path d="M194.56,93.184c-56.32,0-101.888,45.568-101.888,101.888S138.24,296.96,194.56,296.96s101.888-45.568,101.888-101.888     S250.88,93.184,194.56,93.184z M194.56,291.84c-53.248,0-96.768-43.52-96.768-96.768S140.8,98.304,194.56,98.304     c53.248,0,96.768,43.52,96.768,96.768S247.808,291.84,194.56,291.84z" fill="#000000"/><path d="M189.952,324.608c-1.024-0.512-2.56,0-3.072,1.536l-1.536,5.12c-0.512,1.024,0,2.56,1.536,3.072h0.512     c1.024,0,2.048-0.512,2.56-1.536l1.536-5.12C192,326.656,191.488,325.12,189.952,324.608z" fill="#000000"/><path d="M276.48,79.872c1.024,0,1.536,0,1.536-1.024l5.12-4.608c1.024-1.024,1.024-2.56,0-3.584c-1.024-1.024-2.56-1.024-3.584,0     l-5.12,4.608c-1.024,1.024-1.024,2.56,0,3.584C274.944,79.36,275.968,79.872,276.48,79.872z" fill="#000000"/><path d="M54.272,97.28c0.512,0.512,1.536,1.024,2.048,1.024c0.512,0,1.024,0,1.536-0.512c1.024-1.024,1.024-2.56,0-3.584     l-3.072-3.584c-1.024-1.024-2.56-1.024-3.584,0c-1.024,1.024-1.024,2.56,0,3.584L54.272,97.28z" fill="#000000"/><path d="M69.632,114.176c0.512,0.512,1.536,1.024,2.048,1.024s1.024,0,1.536-1.024c1.024-1.024,1.024-2.56,0-3.584l-5.12-5.632     c-1.024-1.024-2.56-1.024-3.584,0c-1.024,1.024-1.024,2.56,0,3.584L69.632,114.176z" fill="#000000"/><path d="M262.656,337.92c-0.512-1.536-1.536-2.56-3.072-2.048c-1.536,0.512-2.56,1.536-2.048,3.072l2.048,10.24     c0.512,1.024,1.536,2.048,2.56,2.048h0.512c1.536-0.512,2.56-1.536,2.048-3.072L262.656,337.92z" fill="#000000"/><path d="M219.648,220.16c2.048-2.048,2.048-5.12,0-7.168l-3.585-3.585c1.788-2.771,3.052-5.893,3.667-9.215h5.55     c3.072,0,5.12-2.048,5.12-5.12c0-3.072-2.048-5.12-5.12-5.12h-5.787c-0.746-3.152-2.096-6.106-3.919-8.726l4.074-4.074     c2.048-2.048,2.048-5.12,0-7.168c-2.048-2.048-5.12-2.048-7.168,0l-4.175,4.175c-2.609-1.71-5.524-2.965-8.625-3.63v-6.177     c0-3.072-2.048-5.12-5.12-5.12c-3.072,0-5.12,2.048-5.12,5.12v6.177c-3.101,0.665-6.016,1.92-8.625,3.63l-4.175-4.175     c-2.048-2.048-5.12-2.048-7.168,0c-2.048,2.048-2.048,5.12,0,7.168l4.074,4.074c-1.823,2.619-3.172,5.573-3.919,8.726h-5.788     c-3.072,0-5.12,2.048-5.12,5.12c0,3.072,2.048,5.12,5.12,5.12h5.55c0.615,3.322,1.879,6.444,3.667,9.215l-3.585,3.585     c-2.048,2.048-2.048,5.12,0,7.168c1.024,1.024,2.048,1.536,3.584,1.536c1.024,0,2.56-0.512,3.584-1.536l3.468-3.468     c2.758,1.902,5.913,3.28,9.332,3.977v5.124c0,3.072,2.048,5.12,5.12,5.12c3.072,0,5.12-2.048,5.12-5.12v-5.124     c3.418-0.696,6.573-2.074,9.332-3.977l3.468,3.468c1.024,1.024,2.048,1.536,3.584,1.536     C217.6,221.696,219.136,221.184,219.648,220.16z M179.2,195.584c0-8.192,6.656-15.36,15.36-15.36s15.36,7.168,15.36,15.36     c0,8.192-7.168,15.36-15.36,15.36S179.2,203.776,179.2,195.584z" fill="#000000"/><path d="M231.424,126.976h-1.536c-0.512-0.512-1.024-0.512-1.024-0.512c-1.536,0-2.56,0.512-3.584,1.536l-5.12,5.12     c-2.048,2.048-2.048,5.12,0,7.168l29.184,29.184c1.024,1.024,2.56,1.536,3.584,1.536c1.536,0,2.56-0.512,3.584-1.536l5.12-5.12     c1.024-1.024,1.536-2.56,1.536-4.096v-1.536C261.12,141.824,248.32,129.024,231.424,126.976z M257.536,160.256l-5.12,5.12     l-29.184-29.184l5.632-4.608h1.536c14.336,1.536,25.6,12.8,27.136,27.136V160.256z" fill="#000000"/><path d="M139.776,220.16c-0.512-0.512-2.048-1.024-3.072-1.024c-1.536,0-2.56,0.512-3.584,1.536l-5.12,5.12     c-1.024,1.024-1.536,2.56-1.536,4.096v1.536c2.048,16.896,14.848,29.696,31.744,31.744h1.536h0.512     c1.536,0,2.56-0.512,3.584-1.536l5.12-5.12c2.048-2.048,2.048-5.12,0-7.168L139.776,220.16z M160.768,258.56h-1.536     c-14.336-1.536-25.6-12.8-27.136-27.136v-1.536l4.608-5.632l29.184,29.184L160.768,258.56z" fill="#000000"/><path d="M133.12,168.96c1.024,1.024,2.56,1.536,3.584,1.536c1.536,0,2.56-0.512,3.584-1.536l29.184-29.184     c2.048-2.048,2.048-5.12,0-7.168l-5.12-5.12c-1.536-0.512-2.56-1.024-4.096-1.024h-0.512h-1.536     c-16.896,2.048-29.696,14.848-31.744,31.744v1.536c0,1.536,0.512,3.072,1.536,4.096L133.12,168.96z M131.072,159.232     c1.536-14.336,12.8-25.6,27.136-27.136l2.048-0.512l5.12,5.12l-29.184,29.184l-5.12-5.12V159.232z" fill="#000000"/><path d="M255.488,221.184c-0.512-1.536-1.536-2.048-3.072-2.048c-1.536,0-2.56,0.512-3.584,1.536l-29.184,29.184     c-2.048,2.048-2.048,5.12,0,7.168l5.12,5.12c1.024,1.024,2.048,1.536,3.584,1.536h0.512h1.536     c16.896-2.048,29.696-14.848,31.744-31.744V230.4c0-1.536-0.512-3.072-1.536-4.096L255.488,221.184z M257.536,230.912     c-1.536,14.336-12.8,25.6-27.136,27.136h-1.536l-5.12-5.12l28.672-28.672l5.12,5.12V230.912z" fill="#000000"/><path d="M168.96,48.64c3.584,0,6.656-3.072,6.656-6.656c0-3.584-3.072-6.656-6.656-6.656c-3.584,0-6.656,3.072-6.656,6.656     C162.304,45.568,165.376,48.64,168.96,48.64z" fill="#000000"/><path d="M220.16,342.528c-3.584,0-6.656,3.072-6.656,6.656s3.072,6.656,6.656,6.656c3.584,0,6.656-3.072,6.656-6.656     S223.744,342.528,220.16,342.528z" fill="#000000"/><path d="M245.76,55.296c1.024,0.512,2.56,1.024,3.584,1.024c2.048,0,4.608-1.024,5.632-3.584c1.536-3.072,0.512-7.168-2.56-9.216     c-3.072-1.536-7.168-0.512-9.216,2.56c-0.512,1.536-1.024,3.584-0.512,5.12C243.2,52.736,244.224,54.272,245.76,55.296z" fill="#000000"/><path d="M142.848,335.36c-3.072-1.536-7.168-0.512-9.216,2.56c-1.536,3.072-0.512,7.168,2.56,9.216     c1.024,0.512,2.56,1.024,3.584,1.024c2.56,0,4.608-1.536,5.632-3.584c0.512-1.536,1.024-3.584,0.512-5.12     C145.408,337.92,144.384,336.384,142.848,335.36z" fill="#000000"/><path d="M314.88,103.424c1.024,0,2.048-0.512,3.584-1.024c1.536-1.024,2.56-2.56,3.072-4.096c0.512-1.536,0.512-3.584-0.512-5.12     c-1.536-3.072-6.144-4.608-9.216-2.56c-1.536,1.024-2.56,2.56-3.072,4.096c-0.512,1.536-0.512,3.584,0.512,5.12     C310.272,101.888,312.32,103.424,314.88,103.424z" fill="#000000"/><path d="M80.384,290.816c-1.536-3.072-6.144-4.608-9.216-2.56c-3.072,2.048-4.608,6.144-2.56,9.216     c1.024,2.048,3.072,3.584,5.632,3.584c1.536,0,2.56,0,3.584-1.024c1.536-1.024,2.56-2.56,3.072-4.096     C81.408,294.4,81.408,292.352,80.384,290.816z" fill="#000000"/><path d="M348.16,163.328c-3.584,0-6.656,3.072-6.656,6.656c0,3.584,3.072,6.656,6.656,6.656s6.656-3.072,6.656-6.656     C354.816,166.4,351.744,163.328,348.16,163.328z" fill="#000000"/><path d="M40.96,214.528c-3.584,0-6.656,3.072-6.656,6.656c0,3.584,3.072,6.656,6.656,6.656c3.584,0,6.656-3.072,6.656-6.656     C47.616,217.6,44.544,214.528,40.96,214.528z" fill="#000000"/><path d="M334.336,246.784c-0.512,1.536-1.024,3.584-0.512,5.12c0.512,1.536,1.536,3.072,3.072,4.096     c1.024,0.512,2.56,1.024,3.584,1.024c2.56,0,4.608-1.536,5.632-3.584c0.512-1.536,1.024-3.584,0.512-5.12     c-0.512-1.536-1.536-3.072-3.072-4.096C340.48,242.688,335.872,243.712,334.336,246.784z" fill="#000000"/><path d="M41.984,142.336c0.512,1.536,1.536,3.072,3.072,4.096c1.024,0.512,2.56,1.024,3.584,1.024     c2.56,0,4.608-1.024,5.632-3.584c0.512-1.536,1.024-3.584,0.512-5.12s-1.536-3.072-3.072-4.096     c-3.072-1.536-7.168-0.512-9.216,2.56C41.984,138.752,41.472,140.8,41.984,142.336z" fill="#000000"/><path d="M290.304,309.76c-3.072,2.048-4.608,6.144-2.56,9.216c1.024,2.048,3.072,3.584,5.632,3.584     c1.536,0,2.56-0.512,3.584-1.024c1.536-1.024,2.56-2.56,3.072-4.096c0.512-1.536,0.512-3.584-0.512-5.12     C297.984,309.248,293.376,307.712,290.304,309.76z" fill="#000000"/><path d="M95.744,81.92c1.024,0,2.048,0,3.584-1.024c3.072-2.048,4.608-6.144,2.56-9.216c-1.536-3.072-6.144-4.608-9.216-2.56     c-1.536,1.024-2.56,2.56-3.072,4.096c-0.512,1.536-0.512,3.584,0.512,5.12C91.136,80.384,93.184,81.92,95.744,81.92z" fill="#000000"/></g><g transform="matrix(0.1395089328289032 0 0 0.1395089328289032 296 284)" id="L1_8"><path d="M215.04,0C99.328,0,5.12,96.256,5.12,215.04s94.208,215.04,209.92,215.04s209.92-96.256,209.92-215.04     S330.752,0,215.04,0z M265.728,379.904c-1.024,0.512-2.048,0.512-3.072,0.512c-4.608,0-9.216-3.584-10.24-8.192l-5.12-26.112     c-0.686-3.089-2.757-5.711-5.588-7.109l8.148-66.619c14.848-9.728,25.088-24.576,29.184-41.472l58.287-23.604     c1.859,2.269,4.693,3.636,7.76,3.636h0.512l27.136-1.536h0.512c5.632,0,10.752,5.12,10.24,10.752     C378.88,297.472,330.752,358.912,265.728,379.904z M272.384,222.72c-1.536,0.512-2.56,2.048-3.072,3.584     c-3.072,15.872-12.8,30.208-26.624,38.4c-1.536,0.512-2.56,2.048-2.56,3.584l-8.704,69.632h-32.828l-8.644-69.632     c-0.512-1.536-1.024-2.56-2.56-3.584c-14.336-8.192-24.064-22.528-27.136-38.912c-0.512-1.536-1.536-3.072-3.072-3.584     l-59.932-24.452l8.848-32.316l66.955,9.152c1.536,0,3.072-0.512,4.096-1.536c10.24-9.728,23.552-15.36,37.888-15.36     s28.16,5.632,38.4,15.872c1.024,1.024,2.048,1.536,3.584,1.536c0,0,0.512,0,0.512-0.512l67.466-9.156l8.87,32.396L272.384,222.72     z M86.016,210.944c3.095,0,5.954-1.39,7.812-3.697l56.7,23.153c4.096,16.896,14.336,31.744,29.184,41.472l8.546,66.944     c-3.035,1.341-5.268,4.064-5.986,7.296l-5.12,26.112c-1.024,5.12-5.12,8.192-10.24,8.192c-1.024,0-2.048,0-3.072-0.512     c-65.024-20.992-113.152-81.92-117.248-160.256c-0.512-6.144,4.608-10.752,10.24-10.752h0.512l28.16,2.048H86.016z      M328.704,148.48c-2.97,1.32-4.869,3.919-5.438,6.832l-64.706,9.04c-12.288-10.752-27.648-16.896-43.52-16.896     c-16.384,0-31.232,6.144-43.52,16.896l-64.042-9.081c-0.671-2.897-2.45-5.477-5.078-6.791l-25.088-12.288     c-5.632-2.56-7.168-9.728-4.096-14.848c30.208-47.616,82.432-79.36,141.824-79.36s112.128,31.744,141.824,79.36     c3.072,5.12,1.024,11.776-4.096,14.848L328.704,148.48z M215.04,31.744c-3.43,0-6.843,0.113-10.24,0.31V10.506     c3.392-0.176,6.806-0.266,10.24-0.266s6.848,0.089,10.24,0.266v21.549C221.884,31.858,218.471,31.744,215.04,31.744z      M215.04,419.84c-110.08,0-199.68-91.648-199.68-204.8c0-107.84,81.385-196.148,184.32-204.201v21.589     C144.745,37.204,94.975,67.44,64.512,115.712c-3.072,5.12-4.096,10.752-2.56,16.384c1.536,5.632,5.632,10.24,10.752,12.8     l25.088,12.288l-11.457,41.843c-0.183,0.382-0.305,0.771-0.367,1.162l-28.112-2.044c-0.512,0-1.024,0-1.536,0     c-5.211,0-10.418,2.194-14.006,5.766c0.254-4.482,0.646-8.964,1.206-13.446c0.512-1.536-0.512-3.072-2.048-3.072     c-1.536-0.512-3.072,0.512-3.072,2.048c-0.919,7.353-1.403,15.1-1.497,22.538c-0.94,2.603-1.317,5.393-1.063,8.182     c5.12,79.872,54.272,146.432,125.44,169.472c2.048,0.512,4.096,1.024,6.144,1.024c9.728,0,18.432-7.168,19.968-16.384     l5.077-25.89c0.497,0.178,1.023,0.29,1.579,0.29c0,0,0.512,0,0.512-0.512h42.496l5.12,26.112c1.263,6,4.869,10.825,9.725,13.647     c-5.398,1.18-10.864,2.088-16.381,2.737c-1.024,0.512-2.048,1.536-2.048,3.072c0,1.024,1.536,2.048,2.56,2.048     c8.736-0.998,17.35-2.732,25.842-5.132c0.091,0.001,0.179,0.012,0.27,0.012c2.048,0,4.096-0.512,6.144-1.024     c71.68-23.04,120.832-89.088,125.44-168.96c0.512-5.632-1.536-11.264-5.632-15.36c-4.096-4.096-9.216-6.656-14.848-6.656     c-0.512,0-1.024,0-1.536,0l-27.136,1.536l-10.762-39.304c0.106-0.553,0.118-1.115,0.01-1.656c0-0.837-0.234-1.594-0.617-2.247     l23.657-11.577c5.12-2.56,9.216-7.168,10.752-12.8c0.043-0.158,0.077-0.318,0.116-0.477c4.454,8.569,8.218,17.474,11.148,26.589     c0.512,1.024,1.536,1.536,2.56,1.536c0.512,0,0.512,0,1.024,0c1.024-0.512,2.048-1.536,1.536-3.072     c-4.459-12.93-10.084-25.083-16.873-36.798c-0.527-1.476-1.217-2.88-2.071-4.162C335.51,67.918,285.768,37.245,230.4,32.429     v-21.59C333.335,18.892,414.72,107.2,414.72,215.04C414.72,328.192,325.12,419.84,215.04,419.84z" fill="#000000"/><path d="M235.008,215.552c0-10.752-9.216-19.968-19.968-19.968s-19.968,9.216-19.968,19.968s8.704,19.968,19.968,19.968     C226.304,235.52,235.008,226.304,235.008,215.552z M215.04,231.936c-8.704,0-15.872-7.168-15.872-16.384     c0-8.704,7.168-16.384,15.872-16.384s15.872,7.168,15.872,16.384S223.744,231.936,215.04,231.936z" fill="#000000"/><path d="M201.216,239.616l-0.512-0.512c-3.584-2.56-8.192-1.024-10.24,2.56c-2.56,4.096-1.024,8.704,2.56,10.752l0.512,0.512     c1.536,0.512,2.56,1.024,4.096,1.024c2.56,0,5.12-1.536,6.144-3.584C206.336,246.272,204.8,241.664,201.216,239.616z" fill="#000000"/><path d="M197.12,192c1.536,0,3.072-0.512,4.096-1.024l0.512-0.512c3.584-2.56,4.608-7.168,2.56-10.752     c-2.56-3.584-7.168-4.608-10.752-2.56l-0.512,0.512c-3.584,2.56-4.608,7.168-2.56,10.752C192,190.464,194.56,192,197.12,192z" fill="#000000"/><path d="M228.864,190.976c1.536,0.512,2.56,1.024,4.096,1.024c2.56,0,5.12-1.536,6.144-3.584     c2.048-4.096,1.024-8.704-2.56-10.752l-0.512-0.512c-3.584-2.048-8.192-0.512-10.24,3.072     C223.744,183.808,225.28,188.928,228.864,190.976z" fill="#000000"/><path d="M250.368,206.336c-4.096,0-7.68,3.584-7.68,7.68c0,0.512,0,1.024,0,1.024c0,4.608,3.584,7.68,7.68,7.68     s7.68-3.584,7.68-8.192c0-0.512,0-0.512,0-0.512C258.048,209.92,254.464,206.336,250.368,206.336z" fill="#000000"/><path d="M179.712,206.848c-4.096,0-7.68,3.584-7.68,7.68v1.024c0,4.096,3.584,7.68,7.68,7.68c4.608,0,7.68-3.584,7.68-8.192     v-0.512C187.392,210.432,183.808,206.848,179.712,206.848z" fill="#000000"/><path d="M228.864,239.104l-0.512,0.512c-3.584,2.048-4.608,6.656-2.56,10.24c1.536,2.048,4.096,3.584,6.656,3.584     c1.536,0,3.072,0,4.608-1.024c3.584-2.56,4.608-7.168,2.56-10.752C237.056,238.08,232.448,237.056,228.864,239.104z" fill="#000000"/><path d="M42.496,183.808c1.536,0,2.56-1.024,2.56-2.56s0.512-3.584,1.024-5.632c0-1.536-0.512-2.56-2.048-3.072     c-1.536,0-2.56,0.512-3.072,2.048c0,2.048-0.512,4.096-1.024,6.144C39.936,182.272,40.448,183.296,42.496,183.808z" fill="#000000"/><path d="M197.632,390.656l-2.56-0.512c-1.536-0.512-3.072,0.512-3.072,2.048c-0.512,1.536,0.512,3.072,2.048,3.072l3.072,0.512     c1.536,0,2.56-0.512,2.56-2.56C200.192,392.192,199.168,390.656,197.632,390.656z" fill="#000000"/><path d="M219.648,391.68c-4.096,0-8.192,0-12.288,0c-1.536,0-2.56,1.024-2.56,2.56s1.024,2.56,2.56,2.56c2.56,0,5.12,0,7.68,0     c1.536,0,3.072,0,4.608,0c1.536,0,2.56-1.024,2.56-2.56S221.184,391.68,219.648,391.68z" fill="#000000"/><path d="M387.584,168.448c-0.512-1.536-1.536-2.56-3.072-2.048c-1.536,0.512-2.56,1.536-2.048,3.072     c0.512,2.048,1.024,4.608,1.536,6.656c0.512,1.024,1.536,2.048,2.56,2.048c0,0,0,0,0.512,0c1.536-0.512,2.56-1.536,2.048-3.072     C388.608,173.056,388.096,170.496,387.584,168.448z" fill="#000000"/></g><g transform="matrix(0.17675547301769257 0 0 0.17675547301769257 120 126.99999237060547)" id="L1_9"><path d="M325.452,280.557h-4.72c0.048-0.666,0.048-1.334,0-2v-252c0-7.732-6.268-14-14-14h-136.8c-7.732,0-14,6.268-14,14v104    c-13.025,3.16-24.423,11.024-32,22.08c-9.292,13.387-12.164,30.208-7.84,45.92c5.76,22.08,6.48,51.36-5.44,63.52    c-6.863,6.083-16.517,7.897-25.12,4.72c-9.254-1.465-17.155-7.474-21.04-16c-12.72-29.36,19.04-84.88,19.12-85.12    c1.92-2.88,46.16-71.6,0.96-112c-1.84-1.92-45.44-48-79.12-43.52c-3.424,0.442-5.842,3.576-5.4,7c0.442,3.424,3.576,5.842,7,5.4    c8.094-0.486,16.162,1.316,23.28,5.2l-8.96,10.8c-4.856,6.017-3.914,14.831,2.103,19.687c0.098,0.079,0.197,0.157,0.297,0.233    l30.08,24c2.473,1.982,5.551,3.055,8.72,3.04h1.2c3.688-0.416,7.058-2.288,9.36-5.2l8.72-10.96c27.04,34.56-8,89.6-8.88,90.48    c-1.44,2.48-35.04,61.28-20,96c5.56,12.056,16.739,20.568,29.84,22.72c4.035,0.978,8.169,1.488,12.32,1.52    c8.97,0.27,17.654-3.175,24-9.52c16-16.72,14.72-50.8,8.48-74.96c-6.637-22.24,5.95-45.662,28.16-52.4v135.36    c-0.048,0.666-0.048,1.334,0,2h-4c-7.73-0.177-14.14,5.946-14.316,13.676c-0.003,0.108-0.004,0.216-0.004,0.324v21.04    c-0.002,7.732,6.264,14.002,13.996,14.004c0.108,0,0.216-0.001,0.324-0.004h173.68c7.732,0,14-6.268,14-14v-21.04    C339.452,286.826,333.184,280.557,325.452,280.557z M72.652,61.917l-8.88,10.96c-0.339,0.412-0.829,0.671-1.36,0.72    c-0.514,0.067-1.034-0.078-1.44-0.4l-30.08-24c-0.762-0.778-0.762-2.022,0-2.8l8.88-11.04c0.339-0.412,0.829-0.671,1.36-0.72    c0.514-0.067,1.034,0.078,1.44,0.4l30.08,24c0.419,0.333,0.68,0.826,0.72,1.36C73.367,60.985,73.104,61.541,72.652,61.917z     M167.772,26.557c0-1.105,0.895-2,2-2h137.12c1.105,0,2,0.895,2,2v252c0,1.105-0.895,2-2,2h-136.96    c-1.101,0.088-2.065-0.733-2.154-1.834c-0.004-0.055-0.007-0.111-0.006-0.166V26.557z M327.772,315.597c0,1.105-0.895,2-2,2h-174    c-1.105,0-2-0.895-2-2v-21.04c0-1.105,0.895-2,2-2h173.68c1.09-0.177,2.118,0.564,2.294,1.654c0.019,0.114,0.027,0.23,0.026,0.346    V315.597z" fill="#010002"/><path d="M279.772,43.597h-82.88c-7.732,0-14,6.268-14,14v82.96c0,7.732,6.268,14,14,14h82.88c7.732,0,14-6.268,14-14v-82.96    C293.772,49.866,287.504,43.597,279.772,43.597z M281.772,140.637c-0.043,1.073-0.926,1.921-2,1.92h-82.88c-1.105,0-2-0.895-2-2    v-82.96c0-1.105,0.895-2,2-2h82.88c1.105,0,2,0.895,2,2V140.637z" fill="#010002"/><path d="M270.412,177.198h-64c-3.314,0-6,2.686-6,6s2.686,6,6,6h64c3.314,0,6-2.686,6-6S273.726,177.198,270.412,177.198z" fill="#010002"/></g><g transform="matrix(0.17420591413974762 0 0 0.17420591413974762 166 45)" id="L1_10"><path d="M323.24,75.46l-61.6-61.84c-18.16-18.16-40-18.16-58.08,0L111,106.34c-5.943,5.929-5.953,15.553-0.024,21.496    c0.008,0.008,0.016,0.016,0.024,0.024l20.8,20.8l-24.56,24.32c-2.34,2.343-2.34,6.137,0,8.48l6.24,6.24l-104,104    c-1.106,1.104-1.738,2.597-1.76,4.16l-0.16,42.48c-0.044,3.313,2.606,6.035,5.919,6.079c0.027,0,0.054,0,0.081,0v-0.16h33.6    c1.591-0.001,3.116-0.634,4.24-1.76l18.88-18.88c1.087-1.085,1.717-2.545,1.76-4.08l0.56-19.28l16,2    c1.823,0.229,3.651-0.39,4.96-1.68l11.92-11.92c0.998-0.983,1.621-2.285,1.76-3.68l1.68-17.36l20.96-4.64    c2.376-0.512,4.208-2.408,4.64-4.8l4.16-23.12l22.4-3.52c1.242-0.202,2.39-0.79,3.28-1.68l24.48-24.48l20.8,20.8    c5.929,5.943,15.553,5.953,21.496,0.024c0.008-0.008,0.016-0.016,0.024-0.024l92.08-92.64C341.4,115.38,341.4,93.54,323.24,75.46z     M157.16,220.1l-24.64,3.92c-2.524,0.404-4.515,2.363-4.96,4.88l-4.32,23.12l-21.28,4.72c-2.524,0.575-4.394,2.703-4.64,5.28    l-1.92,19.6l-8,8l-20.16-2.16c-3.29-0.399-6.28,1.943-6.68,5.233c-0.021,0.175-0.035,0.351-0.041,0.527l-0.64,23.52l-15.44,15.44    h-25.2l0.96-33.84l106.08-106.4c2.34-2.343,2.34-6.137,0-8.48l-6.24-6.24l20.24-20.24l40,40L157.16,220.1z M315.24,125.06    l-92.8,92.48c-1.24,1.259-3.266,1.275-4.525,0.035c-0.012-0.011-0.023-0.023-0.035-0.035l-25.04-24.96l-48-48l-25.04-25.04    c-1.499-0.936-1.955-2.91-1.019-4.409c0.188-0.3,0.424-0.568,0.699-0.791l92.56-92.24c5.17-6.007,12.566-9.647,20.48-10.08    c7.94,0.506,15.359,4.129,20.64,10.08l62.08,61.84C324.6,93.3,332.2,107.94,315.24,125.06z" fill="#5c4b51"/><path d="M289.22,104.079c-0.096-0.103-0.196-0.203-0.299-0.299l-55.6-55.6c-2.259-2.424-6.056-2.558-8.48-0.299    c-2.424,2.259-2.558,6.056-0.299,8.48c0.096,0.103,0.196,0.203,0.299,0.299l55.6,55.6c2.259,2.424,6.056,2.558,8.48,0.299    S291.479,106.504,289.22,104.079z" fill="#5c4b51"/></g><path d="M34.028,27.406l14.614-13.003L35.733,29.177c0.393,0.7,0.637,1.496,0.637,2.356c0,2.674-2.168,4.836-4.838,4.836   c-2.672,0-4.837-2.162-4.837-4.836c0-2.672,2.165-4.837,4.837-4.837C32.452,26.696,33.297,26.964,34.028,27.406z M63.067,31.533   c0,17.387-14.146,31.534-31.533,31.534C14.147,63.067,0,48.92,0,31.533C0,14.146,14.147,0,31.534,0   C48.921,0,63.067,14.146,63.067,31.533z M56.163,42.228l-3.963-1.61l0.464-1.146l3.948,1.608c0.994-2.604,1.588-5.396,1.72-8.311   h-4.233v-2.471h4.233c-0.139-3.03-0.767-5.926-1.834-8.615l-3.935,1.656l-0.479-1.138l3.936-1.656   c-2.742-6.084-7.669-10.973-13.794-13.643l-1.612,3.963l-1.141-0.464l1.607-3.948c-2.598-0.996-5.398-1.588-8.313-1.722v4.235   h-2.466V4.732c-3.03,0.138-5.926,0.769-8.614,1.834l1.656,3.934l-1.138,0.479l-1.656-3.934c-2.613,1.177-4.995,2.764-7.086,4.672   l2.989,2.989l-1.745,1.745l-2.989-2.989c-1.981,2.169-3.624,4.65-4.814,7.378l3.963,1.611l-0.464,1.143l-3.947-1.607   c-0.996,2.602-1.589,5.396-1.722,8.311h4.235v2.467H4.733c0.138,3.031,0.769,5.926,1.834,8.615l3.934-1.656l0.479,1.139   L7.046,42.52c1.177,2.613,2.763,4.995,4.671,7.085l2.989-2.988l1.745,1.745l-2.989,2.985c4.776,4.361,11.109,7.051,18.072,7.051   c6.962,0,13.289-2.68,18.07-7.051l-2.988-2.985l1.745-1.745l2.986,2.988C53.332,47.438,54.975,44.955,56.163,42.228z    M22.625,48.368h17.819v-3.504H22.625V48.368z" transform="matrix(0.9513691663742065 0 0 0.9513691663742065 308 98.99999237060547)" id="L1_12" fill="#5c4b51"/><path d="M119.743,103.298l-29.84-29.84l24.22-24.22c7.864,1.826,16.457-0.269,22.597-6.408   c6.719-6.713,8.562-16.367,5.74-24.81l-11.403,11.397c-4.034,4.046-10.693,3.92-14.893-0.28   c-4.183-4.189-4.314-10.848-0.286-14.887l11.397-11.397c-8.425-2.84-18.074-0.985-24.804,5.74   c-6.128,6.122-8.216,14.714-6.385,22.591l-24.22,24.214L47.657,31.189c1.826-7.87-0.28-16.463-6.402-22.597   c-6.713-6.719-16.361-8.568-24.804-5.746l11.397,11.403c4.04,4.034,3.92,10.699-0.286,14.893   c-4.189,4.189-10.836,4.314-14.887,0.286L1.277,18.026c-2.828,8.431-0.979,18.092,5.752,24.81   c6.116,6.134,14.708,8.216,22.591,6.396l24.208,24.202l-29.834,29.834c-5.43-0.376-10.979,1.426-15.114,5.585   c-7.626,7.614-7.626,19.965,0,27.591c7.602,7.608,19.959,7.608,27.573,0c4.147-4.147,5.943-9.702,5.597-15.132l29.816-29.828   l29.84,29.84c-0.37,5.43,1.438,10.985,5.585,15.126c7.608,7.62,19.971,7.62,27.585,0c7.614-7.614,7.614-19.965,0-27.585   C130.728,104.719,125.173,102.917,119.743,103.298z M25.311,132.56l-9.923-2.649l-2.643-9.923l7.25-7.262l9.923,2.655l2.655,9.917   L25.311,132.56z M128.335,129.929l-9.917,2.643l-7.262-7.262l2.649-9.917l9.923-2.655l7.268,7.262L128.335,129.929z" transform="matrix(0.41743776202201843 0 0 0.41743776202201843 103 310)" fill="#010002" id="L1_13"/></defs><g fi:class="KUsePattern" opacity="0.2"><pattern id="pattern_L1_0" width="350" height="350" patternUnits="userSpaceOnUse"><use xlink:href="#L1_0" x="-350" y="-350"/><use xlink:href="#L1_0" x="0" y="-350"/><use xlink:href="#L1_0" x="350" y="-350"/><use xlink:href="#L1_0" x="-350" y="0"/><use xlink:href="#L1_0" x="0" y="0"/><use xlink:href="#L1_0" x="350" y="0"/><use xlink:href="#L1_0" x="-350" y="350"/><use xlink:href="#L1_0" x="0" y="350"/><use xlink:href="#L1_0" x="350" y="350"/></pattern><rect x="0" y="0" width="100%" height="100%" fill="url(#pattern_L1_0)"/></g><g fi:class="KUsePattern"><pattern id="pattern_L1_1" width="350" height="350" patternUnits="userSpaceOnUse"><use xlink:href="#L1_1" x="-350" y="-350"/><use xlink:href="#L1_1" x="0" y="-350"/><use xlink:href="#L1_1" x="350" y="-350"/><use xlink:href="#L1_1" x="-350" y="0"/><use xlink:href="#L1_1" x="0" y="0"/><use xlink:href="#L1_1" x="350" y="0"/><use xlink:href="#L1_1" x="-350" y="350"/><use xlink:href="#L1_1" x="0" y="350"/><use xlink:href="#L1_1" x="350" y="350"/></pattern><rect x="0" y="0" width="100%" height="100%" fill="url(#pattern_L1_1)"/></g><g fi:class="KUsePattern"><pattern id="pattern_L1_2" width="350" height="350" patternUnits="userSpaceOnUse"><use xlink:href="#L1_2" x="-350" y="-350"/><use xlink:href="#L1_2" x="0" y="-350"/><use xlink:href="#L1_2" x="350" y="-350"/><use xlink:href="#L1_2" x="-350" y="0"/><use xlink:href="#L1_2" x="0" y="0"/><use xlink:href="#L1_2" x="350" y="0"/><use xlink:href="#L1_2" x="-350" y="350"/><use xlink:href="#L1_2" x="0" y="350"/><use xlink:href="#L1_2" x="350" y="350"/></pattern><rect x="0" y="0" width="100%" height="100%" fill="url(#pattern_L1_2)"/></g><g fi:class="KUsePattern"><pattern id="pattern_L1_3" width="350" height="350" patternUnits="userSpaceOnUse"><use xlink:href="#L1_3" x="-350" y="-350"/><use xlink:href="#L1_3" x="0" y="-350"/><use xlink:href="#L1_3" x="350" y="-350"/><use xlink:href="#L1_3" x="-350" y="0"/><use xlink:href="#L1_3" x="0" y="0"/><use xlink:href="#L1_3" x="350" y="0"/><use xlink:href="#L1_3" x="-350" y="350"/><use xlink:href="#L1_3" x="0" y="350"/><use xlink:href="#L1_3" x="350" y="350"/></pattern><rect x="0" y="0" width="100%" height="100%" fill="url(#pattern_L1_3)"/></g><g fi:class="KUsePattern" opacity="1"><pattern id="pattern_L1_4" width="350" height="350" patternUnits="userSpaceOnUse"><use xlink:href="#L1_4" x="-350" y="-350"/><use xlink:href="#L1_4" x="0" y="-350"/><use xlink:href="#L1_4" x="350" y="-350"/><use xlink:href="#L1_4" x="-350" y="0"/><use xlink:href="#L1_4" x="0" y="0"/><use xlink:href="#L1_4" x="350" y="0"/><use xlink:href="#L1_4" x="-350" y="350"/><use xlink:href="#L1_4" x="0" y="350"/><use xlink:href="#L1_4" x="350" y="350"/></pattern><rect x="0" y="0" width="100%" height="100%" fill="url(#pattern_L1_4)"/></g><g fi:class="KUsePattern"><pattern id="pattern_L1_5" width="350" height="350" patternUnits="userSpaceOnUse"><use xlink:href="#L1_5" x="-350" y="-350"/><use xlink:href="#L1_5" x="0" y="-350"/><use xlink:href="#L1_5" x="350" y="-350"/><use xlink:href="#L1_5" x="-350" y="0"/><use xlink:href="#L1_5" x="0" y="0"/><use xlink:href="#L1_5" x="350" y="0"/><use xlink:href="#L1_5" x="-350" y="350"/><use xlink:href="#L1_5" x="0" y="350"/><use xlink:href="#L1_5" x="350" y="350"/></pattern><rect x="0" y="0" width="100%" height="100%" fill="url(#pattern_L1_5)"/></g><g fi:class="KUsePattern"><pattern id="pattern_L1_6" width="350" height="350" patternUnits="userSpaceOnUse"><use xlink:href="#L1_6" x="-350" y="-350"/><use xlink:href="#L1_6" x="0" y="-350"/><use xlink:href="#L1_6" x="350" y="-350"/><use xlink:href="#L1_6" x="-350" y="0"/><use xlink:href="#L1_6" x="0" y="0"/><use xlink:href="#L1_6" x="350" y="0"/><use xlink:href="#L1_6" x="-350" y="350"/><use xlink:href="#L1_6" x="0" y="350"/><use xlink:href="#L1_6" x="350" y="350"/></pattern><rect x="0" y="0" width="100%" height="100%" fill="url(#pattern_L1_6)"/></g><g fi:class="KUsePattern"><pattern id="pattern_L1_7" width="350" height="350" patternUnits="userSpaceOnUse"><use xlink:href="#L1_7" x="-350" y="-350"/><use xlink:href="#L1_7" x="0" y="-350"/><use xlink:href="#L1_7" x="350" y="-350"/><use xlink:href="#L1_7" x="-350" y="0"/><use xlink:href="#L1_7" x="0" y="0"/><use xlink:href="#L1_7" x="350" y="0"/><use xlink:href="#L1_7" x="-350" y="350"/><use xlink:href="#L1_7" x="0" y="350"/><use xlink:href="#L1_7" x="350" y="350"/></pattern><rect x="0" y="0" width="100%" height="100%" fill="url(#pattern_L1_7)"/></g><g fi:class="KUsePattern"><pattern id="pattern_L1_8" width="350" height="350" patternUnits="userSpaceOnUse"><use xlink:href="#L1_8" x="-350" y="-350"/><use xlink:href="#L1_8" x="0" y="-350"/><use xlink:href="#L1_8" x="350" y="-350"/><use xlink:href="#L1_8" x="-350" y="0"/><use xlink:href="#L1_8" x="0" y="0"/><use xlink:href="#L1_8" x="350" y="0"/><use xlink:href="#L1_8" x="-350" y="350"/><use xlink:href="#L1_8" x="0" y="350"/><use xlink:href="#L1_8" x="350" y="350"/></pattern><rect x="0" y="0" width="100%" height="100%" fill="url(#pattern_L1_8)"/></g><g fi:class="KUsePattern"><pattern id="pattern_L1_9" width="350" height="350" patternUnits="userSpaceOnUse"><use xlink:href="#L1_9" x="-350" y="-350"/><use xlink:href="#L1_9" x="0" y="-350"/><use xlink:href="#L1_9" x="350" y="-350"/><use xlink:href="#L1_9" x="-350" y="0"/><use xlink:href="#L1_9" x="0" y="0"/><use xlink:href="#L1_9" x="350" y="0"/><use xlink:href="#L1_9" x="-350" y="350"/><use xlink:href="#L1_9" x="0" y="350"/><use xlink:href="#L1_9" x="350" y="350"/></pattern><rect x="0" y="0" width="100%" height="100%" fill="url(#pattern_L1_9)"/></g><g fi:class="KUsePattern" opacity="0.12"><pattern id="pattern_L1_10" width="350" height="350" patternUnits="userSpaceOnUse"><use xlink:href="#L1_10" x="-350" y="-350"/><use xlink:href="#L1_10" x="0" y="-350"/><use xlink:href="#L1_10" x="350" y="-350"/><use xlink:href="#L1_10" x="-350" y="0"/><use xlink:href="#L1_10" x="0" y="0"/><use xlink:href="#L1_10" x="350" y="0"/><use xlink:href="#L1_10" x="-350" y="350"/><use xlink:href="#L1_10" x="0" y="350"/><use xlink:href="#L1_10" x="350" y="350"/></pattern><rect x="0" y="0" width="100%" height="100%" fill="url(#pattern_L1_10)"/></g><g fi:class="KUsePattern" opacity="0.13"><pattern id="pattern_L1_12" width="350" height="350" patternUnits="userSpaceOnUse"><use xlink:href="#L1_12" x="-350" y="-350"/><use xlink:href="#L1_12" x="0" y="-350"/><use xlink:href="#L1_12" x="350" y="-350"/><use xlink:href="#L1_12" x="-350" y="0"/><use xlink:href="#L1_12" x="0" y="0"/><use xlink:href="#L1_12" x="350" y="0"/><use xlink:href="#L1_12" x="-350" y="350"/><use xlink:href="#L1_12" x="0" y="350"/><use xlink:href="#L1_12" x="350" y="350"/></pattern><rect x="0" y="0" width="100%" height="100%" fill="url(#pattern_L1_12)"/></g><g fi:class="KUsePattern"><pattern id="pattern_L1_13" width="350" height="350" patternUnits="userSpaceOnUse"><use xlink:href="#L1_13" x="-350" y="-350"/><use xlink:href="#L1_13" x="0" y="-350"/><use xlink:href="#L1_13" x="350" y="-350"/><use xlink:href="#L1_13" x="-350" y="0"/><use xlink:href="#L1_13" x="0" y="0"/><use xlink:href="#L1_13" x="350" y="0"/><use xlink:href="#L1_13" x="-350" y="350"/><use xlink:href="#L1_13" x="0" y="350"/><use xlink:href="#L1_13" x="350" y="350"/></pattern><rect x="0" y="0" width="100%" height="100%" fill="url(#pattern_L1_13)"/></g></svg>